<svg width="318" height="415" viewBox="0 0 318 415" fill="none" xmlns="http://www.w3.org/2000/svg">
<rect x="1.5" y="1.5" width="315" height="412" rx="38.5" fill="#262626" stroke="black" stroke-width="3"/>
<path d="M20 1.5H298C308.217 1.5 316.5 9.78273 316.5 20V61.5H1.5V20C1.5 9.78273 9.78273 1.5 20 1.5Z" fill="#3C3C3C" stroke="black" stroke-width="3"/>
<path d="M17.5 246.5H189.5V374C189.5 386.979 178.979 397.5 166 397.5H41C28.0213 397.5 17.5 386.979 17.5 374V246.5Z" fill="#4C4C4C" stroke="black" stroke-width="3"/>
<rect x="26.5" y="272.5" width="117" height="31" rx="15.5" fill="#CCCCCC"/>
<path d="M101.088 294.205C100.27 294.205 99.5476 293.998 98.9212 293.585C98.2947 293.167 97.8047 292.579 97.451 291.82C97.0973 291.058 96.9205 290.156 96.9205 289.116C96.9205 288.085 97.0973 287.19 97.451 286.432C97.8047 285.673 98.2969 285.087 98.9276 284.674C99.5582 284.261 100.287 284.054 101.114 284.054C101.753 284.054 102.258 284.161 102.629 284.374C103.004 284.582 103.289 284.821 103.485 285.089C103.685 285.354 103.841 285.571 103.952 285.741H104.08V280.909H105.588V294H104.131V292.491H103.952C103.841 292.67 103.683 292.896 103.479 293.169C103.274 293.437 102.982 293.678 102.603 293.891C102.224 294.1 101.719 294.205 101.088 294.205ZM101.293 292.849C101.898 292.849 102.409 292.692 102.827 292.376C103.244 292.057 103.562 291.616 103.779 291.053C103.996 290.487 104.105 289.832 104.105 289.091C104.105 288.358 103.999 287.717 103.786 287.167C103.572 286.613 103.257 286.183 102.839 285.876C102.422 285.565 101.906 285.409 101.293 285.409C100.653 285.409 100.121 285.573 99.6946 285.901C99.2727 286.225 98.9553 286.666 98.7422 287.224C98.5334 287.778 98.429 288.401 98.429 289.091C98.429 289.79 98.5355 290.425 98.7486 290.996C98.9659 291.562 99.2855 292.014 99.7074 292.351C100.134 292.683 100.662 292.849 101.293 292.849ZM111.45 294.23C110.827 294.23 110.263 294.113 109.756 293.879C109.249 293.64 108.846 293.297 108.548 292.849C108.249 292.398 108.1 291.852 108.1 291.213C108.1 290.651 108.211 290.195 108.433 289.845C108.654 289.491 108.95 289.214 109.321 289.014C109.692 288.814 110.101 288.665 110.548 288.567C111 288.464 111.454 288.384 111.91 288.324C112.506 288.247 112.99 288.19 113.361 288.151C113.736 288.109 114.009 288.038 114.179 287.94C114.354 287.842 114.441 287.672 114.441 287.429V287.378C114.441 286.747 114.268 286.257 113.923 285.908C113.582 285.558 113.065 285.384 112.37 285.384C111.65 285.384 111.085 285.541 110.676 285.857C110.267 286.172 109.979 286.509 109.813 286.866L108.381 286.355C108.637 285.759 108.978 285.294 109.404 284.962C109.835 284.625 110.303 284.391 110.81 284.259C111.322 284.122 111.825 284.054 112.319 284.054C112.634 284.054 112.996 284.092 113.406 284.169C113.819 284.241 114.217 284.393 114.601 284.623C114.989 284.853 115.31 285.2 115.566 285.665C115.822 286.129 115.95 286.751 115.95 287.531V294H114.441V292.67H114.364C114.262 292.884 114.092 293.112 113.853 293.354C113.614 293.597 113.297 293.804 112.901 293.974C112.504 294.145 112.021 294.23 111.45 294.23ZM111.68 292.875C112.276 292.875 112.779 292.758 113.188 292.523C113.602 292.289 113.913 291.987 114.121 291.616C114.335 291.245 114.441 290.855 114.441 290.446V289.065C114.377 289.142 114.237 289.212 114.019 289.276C113.806 289.336 113.559 289.389 113.278 289.436C113.001 289.479 112.73 289.517 112.466 289.551C112.206 289.581 111.995 289.607 111.833 289.628C111.441 289.679 111.075 289.762 110.734 289.877C110.397 289.988 110.124 290.156 109.915 290.382C109.711 290.604 109.609 290.906 109.609 291.29C109.609 291.814 109.803 292.21 110.19 292.479C110.582 292.743 111.079 292.875 111.68 292.875ZM119.323 297.682C119.067 297.682 118.839 297.661 118.639 297.618C118.439 297.58 118.3 297.541 118.224 297.503L118.607 296.173C118.974 296.267 119.297 296.301 119.579 296.276C119.86 296.25 120.109 296.124 120.327 295.898C120.548 295.677 120.751 295.317 120.934 294.818L121.215 294.051L117.584 284.182H119.221L121.931 292.006H122.033L124.743 284.182H126.38L122.212 295.432C122.025 295.939 121.792 296.359 121.515 296.691C121.238 297.028 120.917 297.277 120.55 297.439C120.188 297.601 119.779 297.682 119.323 297.682Z" fill="black"/>
<rect x="26.5" y="272.5" width="117" height="31" rx="15.5" stroke="black" stroke-width="3"/>
<path d="M28 288C28 280.268 34.268 274 42 274H80C82.7614 274 85 276.239 85 279V297C85 299.761 82.7614 302 80 302H42C34.268 302 28 295.732 28 288V288Z" fill="#6C6C6C"/>
<path d="M47.3838 294V284.182H48.8924V294H47.3838ZM48.1509 282.545C47.8568 282.545 47.6033 282.445 47.3902 282.245C47.1814 282.045 47.077 281.804 47.077 281.523C47.077 281.241 47.1814 281.001 47.3902 280.8C47.6033 280.6 47.8568 280.5 48.1509 280.5C48.4449 280.5 48.6963 280.6 48.9051 280.8C49.1182 281.001 49.2247 281.241 49.2247 281.523C49.2247 281.804 49.1182 282.045 48.9051 282.245C48.6963 282.445 48.4449 282.545 48.1509 282.545ZM53.1638 288.094V294H51.6553V284.182H53.1127V285.716H53.2405C53.4707 285.217 53.8201 284.817 54.2888 284.514C54.7576 284.207 55.3627 284.054 56.1042 284.054C56.769 284.054 57.3506 284.19 57.8492 284.463C58.3478 284.732 58.7356 285.141 59.0126 285.69C59.2896 286.236 59.428 286.926 59.428 287.761V294H57.9195V287.864C57.9195 287.092 57.7192 286.491 57.3187 286.061C56.9181 285.626 56.3684 285.409 55.6695 285.409C55.188 285.409 54.7576 285.513 54.3783 285.722C54.0033 285.931 53.7072 286.236 53.4898 286.636C53.2725 287.037 53.1638 287.523 53.1638 288.094ZM66.4545 284.182V285.46H61.3664V284.182H66.4545ZM62.8494 281.83H64.3579V291.188C64.3579 291.614 64.4197 291.933 64.5433 292.146C64.6711 292.355 64.8331 292.496 65.0291 292.568C65.2294 292.636 65.4403 292.67 65.6619 292.67C65.8281 292.67 65.9644 292.662 66.071 292.645C66.1775 292.624 66.2627 292.607 66.3267 292.594L66.6335 293.949C66.5312 293.987 66.3885 294.026 66.2052 294.064C66.022 294.107 65.7897 294.128 65.5085 294.128C65.0823 294.128 64.6647 294.036 64.2556 293.853C63.8508 293.67 63.5142 293.391 63.2457 293.016C62.9815 292.641 62.8494 292.168 62.8494 291.597V281.83Z" fill="white"/>
<rect x="26.5" y="311.5" width="141" height="31" rx="15.5" fill="#CCCCCC"/>
<path d="M97.3807 333V323.182H98.8381V324.716H98.9659C99.1705 324.192 99.5007 323.785 99.9567 323.495C100.413 323.201 100.96 323.054 101.599 323.054C102.247 323.054 102.786 323.201 103.217 323.495C103.651 323.785 103.99 324.192 104.233 324.716H104.335C104.587 324.209 104.964 323.806 105.467 323.508C105.969 323.205 106.572 323.054 107.276 323.054C108.153 323.054 108.871 323.329 109.43 323.879C109.988 324.424 110.267 325.274 110.267 326.429V333H108.759V326.429C108.759 325.705 108.56 325.187 108.164 324.876C107.768 324.565 107.301 324.409 106.764 324.409C106.074 324.409 105.539 324.618 105.16 325.036C104.781 325.449 104.591 325.973 104.591 326.608V333H103.057V326.276C103.057 325.717 102.876 325.268 102.513 324.927C102.151 324.582 101.685 324.409 101.114 324.409C100.722 324.409 100.355 324.513 100.014 324.722C99.6776 324.931 99.4048 325.221 99.196 325.592C98.9915 325.958 98.8892 326.382 98.8892 326.864V333H97.3807ZM117.014 333.205C116.127 333.205 115.35 332.994 114.681 332.572C114.016 332.15 113.496 331.56 113.121 330.801C112.75 330.043 112.565 329.156 112.565 328.142C112.565 327.119 112.75 326.227 113.121 325.464C113.496 324.701 114.016 324.109 114.681 323.687C115.35 323.265 116.127 323.054 117.014 323.054C117.9 323.054 118.676 323.265 119.341 323.687C120.01 324.109 120.529 324.701 120.9 325.464C121.275 326.227 121.463 327.119 121.463 328.142C121.463 329.156 121.275 330.043 120.9 330.801C120.529 331.56 120.01 332.15 119.341 332.572C118.676 332.994 117.9 333.205 117.014 333.205ZM117.014 331.849C117.687 331.849 118.241 331.677 118.676 331.332C119.11 330.987 119.432 330.533 119.641 329.97C119.85 329.408 119.954 328.798 119.954 328.142C119.954 327.486 119.85 326.874 119.641 326.308C119.432 325.741 119.11 325.283 118.676 324.933C118.241 324.584 117.687 324.409 117.014 324.409C116.341 324.409 115.787 324.584 115.352 324.933C114.917 325.283 114.596 325.741 114.387 326.308C114.178 326.874 114.074 327.486 114.074 328.142C114.074 328.798 114.178 329.408 114.387 329.97C114.596 330.533 114.917 330.987 115.352 331.332C115.787 331.677 116.341 331.849 117.014 331.849ZM125.274 327.094V333H123.765V323.182H125.223V324.716H125.351C125.581 324.217 125.93 323.817 126.399 323.514C126.868 323.207 127.473 323.054 128.214 323.054C128.879 323.054 129.461 323.19 129.959 323.463C130.458 323.732 130.846 324.141 131.123 324.69C131.4 325.236 131.538 325.926 131.538 326.761V333H130.03V326.864C130.03 326.092 129.829 325.491 129.429 325.061C129.028 324.626 128.479 324.409 127.78 324.409C127.298 324.409 126.868 324.513 126.488 324.722C126.113 324.931 125.817 325.236 125.6 325.636C125.383 326.037 125.274 326.523 125.274 327.094ZM138.565 323.182V324.46H133.477V323.182H138.565ZM134.96 320.83H136.468V330.188C136.468 330.614 136.53 330.933 136.653 331.146C136.781 331.355 136.943 331.496 137.139 331.568C137.339 331.636 137.55 331.67 137.772 331.67C137.938 331.67 138.075 331.662 138.181 331.645C138.288 331.624 138.373 331.607 138.437 331.594L138.744 332.949C138.641 332.987 138.499 333.026 138.315 333.064C138.132 333.107 137.9 333.128 137.619 333.128C137.192 333.128 136.775 333.036 136.366 332.853C135.961 332.67 135.624 332.391 135.356 332.016C135.092 331.641 134.96 331.168 134.96 330.597V320.83ZM142.553 327.094V333H141.045V319.909H142.553V324.716H142.681C142.911 324.209 143.256 323.806 143.717 323.508C144.181 323.205 144.799 323.054 145.57 323.054C146.239 323.054 146.825 323.188 147.328 323.457C147.831 323.721 148.221 324.128 148.498 324.678C148.779 325.223 148.92 325.918 148.92 326.761V333H147.411V326.864C147.411 326.084 147.209 325.481 146.804 325.055C146.403 324.624 145.847 324.409 145.136 324.409C144.641 324.409 144.198 324.513 143.806 324.722C143.418 324.931 143.112 325.236 142.886 325.636C142.664 326.037 142.553 326.523 142.553 327.094Z" fill="black"/>
<rect x="26.5" y="311.5" width="141" height="31" rx="15.5" stroke="black" stroke-width="3"/>
<path d="M28 327C28 319.268 34.268 313 42 313H80C82.7614 313 85 315.239 85 318V336C85 338.761 82.7614 341 80 341H42C34.268 341 28 334.732 28 327V327Z" fill="#6C6C6C"/>
<path d="M47.3838 333V323.182H48.8924V333H47.3838ZM48.1509 321.545C47.8568 321.545 47.6033 321.445 47.3902 321.245C47.1814 321.045 47.077 320.804 47.077 320.523C47.077 320.241 47.1814 320.001 47.3902 319.8C47.6033 319.6 47.8568 319.5 48.1509 319.5C48.4449 319.5 48.6963 319.6 48.9051 319.8C49.1182 320.001 49.2247 320.241 49.2247 320.523C49.2247 320.804 49.1182 321.045 48.9051 321.245C48.6963 321.445 48.4449 321.545 48.1509 321.545ZM53.1638 327.094V333H51.6553V323.182H53.1127V324.716H53.2405C53.4707 324.217 53.8201 323.817 54.2888 323.514C54.7576 323.207 55.3627 323.054 56.1042 323.054C56.769 323.054 57.3506 323.19 57.8492 323.463C58.3478 323.732 58.7356 324.141 59.0126 324.69C59.2896 325.236 59.428 325.926 59.428 326.761V333H57.9195V326.864C57.9195 326.092 57.7192 325.491 57.3187 325.061C56.9181 324.626 56.3684 324.409 55.6695 324.409C55.188 324.409 54.7576 324.513 54.3783 324.722C54.0033 324.931 53.7072 325.236 53.4898 325.636C53.2725 326.037 53.1638 326.523 53.1638 327.094ZM66.4545 323.182V324.46H61.3664V323.182H66.4545ZM62.8494 320.83H64.3579V330.188C64.3579 330.614 64.4197 330.933 64.5433 331.146C64.6711 331.355 64.8331 331.496 65.0291 331.568C65.2294 331.636 65.4403 331.67 65.6619 331.67C65.8281 331.67 65.9644 331.662 66.071 331.645C66.1775 331.624 66.2627 331.607 66.3267 331.594L66.6335 332.949C66.5312 332.987 66.3885 333.026 66.2052 333.064C66.022 333.107 65.7897 333.128 65.5085 333.128C65.0823 333.128 64.6647 333.036 64.2556 332.853C63.8508 332.67 63.5142 332.391 63.2457 332.016C62.9815 331.641 62.8494 331.168 62.8494 330.597V320.83Z" fill="white"/>
<rect x="26.5" y="350.5" width="123" height="31" rx="15.5" fill="#CCCCCC"/>
<path d="M98.3523 375.682C98.0966 375.682 97.8686 375.661 97.6683 375.618C97.468 375.58 97.3295 375.541 97.2528 375.503L97.6364 374.173C98.0028 374.267 98.3267 374.301 98.608 374.276C98.8892 374.25 99.1385 374.124 99.3558 373.898C99.5774 373.677 99.7798 373.317 99.9631 372.818L100.244 372.051L96.6136 362.182H98.25L100.96 370.006H101.062L103.773 362.182H105.409L101.241 373.432C101.054 373.939 100.822 374.359 100.545 374.691C100.268 375.028 99.946 375.277 99.5795 375.439C99.2173 375.601 98.8082 375.682 98.3523 375.682ZM111.165 372.205C110.219 372.205 109.403 371.996 108.717 371.578C108.035 371.156 107.509 370.568 107.138 369.814C106.772 369.055 106.588 368.173 106.588 367.168C106.588 366.162 106.772 365.276 107.138 364.509C107.509 363.737 108.025 363.136 108.685 362.706C109.35 362.271 110.125 362.054 111.012 362.054C111.523 362.054 112.028 362.139 112.527 362.31C113.025 362.48 113.479 362.757 113.888 363.141C114.297 363.52 114.623 364.023 114.866 364.649C115.109 365.276 115.23 366.047 115.23 366.963V367.602H107.662V366.298H113.696C113.696 365.744 113.586 365.25 113.364 364.815C113.147 364.381 112.836 364.038 112.431 363.786C112.03 363.535 111.557 363.409 111.012 363.409C110.411 363.409 109.891 363.558 109.452 363.857C109.017 364.151 108.683 364.534 108.449 365.007C108.214 365.48 108.097 365.987 108.097 366.528V367.398C108.097 368.139 108.225 368.768 108.48 369.283C108.74 369.795 109.1 370.185 109.561 370.453C110.021 370.717 110.556 370.849 111.165 370.849C111.561 370.849 111.919 370.794 112.239 370.683C112.563 370.568 112.842 370.398 113.076 370.172C113.311 369.942 113.492 369.656 113.62 369.315L115.077 369.724C114.924 370.219 114.666 370.653 114.304 371.028C113.941 371.399 113.494 371.689 112.961 371.898C112.429 372.102 111.83 372.205 111.165 372.205ZM120.414 372.23C119.792 372.23 119.228 372.113 118.721 371.879C118.213 371.64 117.811 371.297 117.512 370.849C117.214 370.398 117.065 369.852 117.065 369.213C117.065 368.651 117.176 368.195 117.397 367.845C117.619 367.491 117.915 367.214 118.286 367.014C118.657 366.814 119.066 366.665 119.513 366.567C119.965 366.464 120.419 366.384 120.875 366.324C121.471 366.247 121.955 366.19 122.326 366.151C122.701 366.109 122.973 366.038 123.144 365.94C123.319 365.842 123.406 365.672 123.406 365.429V365.378C123.406 364.747 123.233 364.257 122.888 363.908C122.547 363.558 122.029 363.384 121.335 363.384C120.615 363.384 120.05 363.541 119.641 363.857C119.232 364.172 118.944 364.509 118.778 364.866L117.346 364.355C117.602 363.759 117.943 363.294 118.369 362.962C118.799 362.625 119.268 362.391 119.775 362.259C120.287 362.122 120.789 362.054 121.284 362.054C121.599 362.054 121.961 362.092 122.37 362.169C122.784 362.241 123.182 362.393 123.566 362.623C123.953 362.853 124.275 363.2 124.531 363.665C124.787 364.129 124.914 364.751 124.914 365.531V372H123.406V370.67H123.329C123.227 370.884 123.056 371.112 122.818 371.354C122.579 371.597 122.262 371.804 121.865 371.974C121.469 372.145 120.985 372.23 120.414 372.23ZM120.645 370.875C121.241 370.875 121.744 370.758 122.153 370.523C122.566 370.289 122.877 369.987 123.086 369.616C123.299 369.245 123.406 368.855 123.406 368.446V367.065C123.342 367.142 123.201 367.212 122.984 367.276C122.771 367.336 122.524 367.389 122.243 367.436C121.966 367.479 121.695 367.517 121.431 367.551C121.171 367.581 120.96 367.607 120.798 367.628C120.406 367.679 120.039 367.762 119.699 367.877C119.362 367.988 119.089 368.156 118.88 368.382C118.676 368.604 118.574 368.906 118.574 369.29C118.574 369.814 118.767 370.21 119.155 370.479C119.547 370.743 120.044 370.875 120.645 370.875ZM127.668 372V362.182H129.125V363.665H129.227C129.406 363.179 129.73 362.785 130.199 362.482C130.668 362.18 131.196 362.028 131.784 362.028C131.895 362.028 132.034 362.031 132.2 362.035C132.366 362.039 132.492 362.045 132.577 362.054V363.588C132.526 363.575 132.409 363.556 132.225 363.531C132.046 363.501 131.857 363.486 131.656 363.486C131.179 363.486 130.753 363.586 130.378 363.786C130.007 363.982 129.713 364.255 129.496 364.604C129.283 364.95 129.176 365.344 129.176 365.787V372H127.668Z" fill="black"/>
<rect x="26.5" y="350.5" width="123" height="31" rx="15.5" stroke="black" stroke-width="3"/>
<path d="M28 366C28 358.268 34.268 352 42 352H80C82.7614 352 85 354.239 85 357V375C85 377.761 82.7614 380 80 380H42C34.268 380 28 373.732 28 366V366Z" fill="#6C6C6C"/>
<path d="M47.3838 372V362.182H48.8924V372H47.3838ZM48.1509 360.545C47.8568 360.545 47.6033 360.445 47.3902 360.245C47.1814 360.045 47.077 359.804 47.077 359.523C47.077 359.241 47.1814 359.001 47.3902 358.8C47.6033 358.6 47.8568 358.5 48.1509 358.5C48.4449 358.5 48.6963 358.6 48.9051 358.8C49.1182 359.001 49.2247 359.241 49.2247 359.523C49.2247 359.804 49.1182 360.045 48.9051 360.245C48.6963 360.445 48.4449 360.545 48.1509 360.545ZM53.1638 366.094V372H51.6553V362.182H53.1127V363.716H53.2405C53.4707 363.217 53.8201 362.817 54.2888 362.514C54.7576 362.207 55.3627 362.054 56.1042 362.054C56.769 362.054 57.3506 362.19 57.8492 362.463C58.3478 362.732 58.7356 363.141 59.0126 363.69C59.2896 364.236 59.428 364.926 59.428 365.761V372H57.9195V365.864C57.9195 365.092 57.7192 364.491 57.3187 364.061C56.9181 363.626 56.3684 363.409 55.6695 363.409C55.188 363.409 54.7576 363.513 54.3783 363.722C54.0033 363.931 53.7072 364.236 53.4898 364.636C53.2725 365.037 53.1638 365.523 53.1638 366.094ZM66.4545 362.182V363.46H61.3664V362.182H66.4545ZM62.8494 359.83H64.3579V369.188C64.3579 369.614 64.4197 369.933 64.5433 370.146C64.6711 370.355 64.8331 370.496 65.0291 370.568C65.2294 370.636 65.4403 370.67 65.6619 370.67C65.8281 370.67 65.9644 370.662 66.071 370.645C66.1775 370.624 66.2627 370.607 66.3267 370.594L66.6335 371.949C66.5312 371.987 66.3885 372.026 66.2052 372.064C66.022 372.107 65.7897 372.128 65.5085 372.128C65.0823 372.128 64.6647 372.036 64.2556 371.853C63.8508 371.67 63.5142 371.391 63.2457 371.016C62.9815 370.641 62.8494 370.168 62.8494 369.597V359.83Z" fill="white"/>
<rect x="17.5" y="229.5" width="172" height="31" rx="15.5" fill="#CCCCCC"/>
<path d="M139.088 251.205C138.27 251.205 137.548 250.998 136.921 250.585C136.295 250.167 135.805 249.579 135.451 248.82C135.097 248.058 134.92 247.156 134.92 246.116C134.92 245.085 135.097 244.19 135.451 243.432C135.805 242.673 136.297 242.087 136.928 241.674C137.558 241.261 138.287 241.054 139.114 241.054C139.753 241.054 140.258 241.161 140.629 241.374C141.004 241.582 141.289 241.821 141.485 242.089C141.685 242.354 141.841 242.571 141.952 242.741H142.08V237.909H143.588V251H142.131V249.491H141.952C141.841 249.67 141.683 249.896 141.479 250.169C141.274 250.437 140.982 250.678 140.603 250.891C140.224 251.1 139.719 251.205 139.088 251.205ZM139.293 249.849C139.898 249.849 140.409 249.692 140.827 249.376C141.244 249.057 141.562 248.616 141.779 248.053C141.996 247.487 142.105 246.832 142.105 246.091C142.105 245.358 141.999 244.717 141.786 244.167C141.572 243.613 141.257 243.183 140.839 242.876C140.422 242.565 139.906 242.409 139.293 242.409C138.653 242.409 138.121 242.573 137.695 242.901C137.273 243.225 136.955 243.666 136.742 244.224C136.533 244.778 136.429 245.401 136.429 246.091C136.429 246.79 136.536 247.425 136.749 247.996C136.966 248.562 137.286 249.014 137.707 249.351C138.134 249.683 138.662 249.849 139.293 249.849ZM149.45 251.23C148.827 251.23 148.263 251.113 147.756 250.879C147.249 250.64 146.846 250.297 146.548 249.849C146.249 249.398 146.1 248.852 146.1 248.213C146.1 247.651 146.211 247.195 146.433 246.845C146.654 246.491 146.95 246.214 147.321 246.014C147.692 245.814 148.101 245.665 148.548 245.567C149 245.464 149.454 245.384 149.91 245.324C150.506 245.247 150.99 245.19 151.361 245.151C151.736 245.109 152.009 245.038 152.179 244.94C152.354 244.842 152.441 244.672 152.441 244.429V244.378C152.441 243.747 152.268 243.257 151.923 242.908C151.582 242.558 151.065 242.384 150.37 242.384C149.65 242.384 149.085 242.541 148.676 242.857C148.267 243.172 147.979 243.509 147.813 243.866L146.381 243.355C146.637 242.759 146.978 242.294 147.404 241.962C147.835 241.625 148.303 241.391 148.81 241.259C149.322 241.122 149.825 241.054 150.319 241.054C150.634 241.054 150.996 241.092 151.406 241.169C151.819 241.241 152.217 241.393 152.601 241.623C152.989 241.853 153.31 242.2 153.566 242.665C153.822 243.129 153.95 243.751 153.95 244.531V251H152.441V249.67H152.364C152.262 249.884 152.092 250.112 151.853 250.354C151.614 250.597 151.297 250.804 150.901 250.974C150.504 251.145 150.021 251.23 149.45 251.23ZM149.68 249.875C150.276 249.875 150.779 249.758 151.188 249.523C151.602 249.289 151.913 248.987 152.121 248.616C152.335 248.245 152.441 247.855 152.441 247.446V246.065C152.377 246.142 152.237 246.212 152.019 246.276C151.806 246.336 151.559 246.389 151.278 246.436C151.001 246.479 150.73 246.517 150.466 246.551C150.206 246.581 149.995 246.607 149.833 246.628C149.441 246.679 149.075 246.762 148.734 246.877C148.397 246.988 148.124 247.156 147.915 247.382C147.711 247.604 147.609 247.906 147.609 248.29C147.609 248.814 147.803 249.21 148.19 249.479C148.582 249.743 149.079 249.875 149.68 249.875ZM160.973 241.182V242.46H155.885V241.182H160.973ZM157.368 238.83H158.876V248.188C158.876 248.614 158.938 248.933 159.062 249.146C159.189 249.355 159.351 249.496 159.547 249.568C159.748 249.636 159.959 249.67 160.18 249.67C160.346 249.67 160.483 249.662 160.589 249.645C160.696 249.624 160.781 249.607 160.845 249.594L161.152 250.949C161.05 250.987 160.907 251.026 160.724 251.064C160.54 251.107 160.308 251.128 160.027 251.128C159.601 251.128 159.183 251.036 158.774 250.853C158.369 250.67 158.032 250.391 157.764 250.016C157.5 249.641 157.368 249.168 157.368 248.597V238.83ZM167.253 251.205C166.307 251.205 165.491 250.996 164.805 250.578C164.123 250.156 163.597 249.568 163.226 248.814C162.86 248.055 162.676 247.173 162.676 246.168C162.676 245.162 162.86 244.276 163.226 243.509C163.597 242.737 164.112 242.136 164.773 241.706C165.438 241.271 166.213 241.054 167.1 241.054C167.611 241.054 168.116 241.139 168.615 241.31C169.113 241.48 169.567 241.757 169.976 242.141C170.385 242.52 170.711 243.023 170.954 243.649C171.197 244.276 171.318 245.047 171.318 245.963V246.602H163.75V245.298H169.784C169.784 244.744 169.673 244.25 169.452 243.815C169.235 243.381 168.923 243.038 168.519 242.786C168.118 242.535 167.645 242.409 167.1 242.409C166.499 242.409 165.979 242.558 165.54 242.857C165.105 243.151 164.771 243.534 164.536 244.007C164.302 244.48 164.185 244.987 164.185 245.528V246.398C164.185 247.139 164.313 247.768 164.568 248.283C164.828 248.795 165.188 249.185 165.649 249.453C166.109 249.717 166.644 249.849 167.253 249.849C167.649 249.849 168.007 249.794 168.327 249.683C168.651 249.568 168.93 249.398 169.164 249.172C169.399 248.942 169.58 248.656 169.708 248.315L171.165 248.724C171.012 249.219 170.754 249.653 170.392 250.028C170.029 250.399 169.582 250.689 169.049 250.898C168.517 251.102 167.918 251.205 167.253 251.205Z" fill="black"/>
<rect x="17.5" y="229.5" width="172" height="31" rx="15.5" stroke="black" stroke-width="3"/>
<path d="M19 245C19 237.268 25.268 231 33 231H115C117.761 231 120 233.239 120 236V254C120 256.761 117.761 259 115 259H33C25.268 259 19 252.732 19 245V245Z" fill="#6C6C6C"/>
<path d="M34.958 251H30.9183V237.909H35.137C36.4069 237.909 37.4935 238.171 38.3969 238.695C39.3004 239.215 39.9928 239.963 40.4744 240.939C40.9559 241.911 41.1967 243.074 41.1967 244.429C41.1967 245.793 40.9538 246.967 40.468 247.951C39.9822 248.931 39.2748 249.685 38.3458 250.214C37.4168 250.738 36.2876 251 34.958 251ZM32.5035 249.594H34.8558C35.9381 249.594 36.8352 249.385 37.5468 248.967C38.2585 248.55 38.789 247.955 39.1384 247.184C39.4879 246.413 39.6626 245.494 39.6626 244.429C39.6626 243.372 39.49 242.462 39.1448 241.7C38.7996 240.933 38.284 240.344 37.5979 239.935C36.9119 239.522 36.0575 239.315 35.0347 239.315H32.5035V249.594ZM46.5404 251.23C45.9183 251.23 45.3536 251.113 44.8465 250.879C44.3394 250.64 43.9367 250.297 43.6384 249.849C43.3401 249.398 43.191 248.852 43.191 248.213C43.191 247.651 43.3018 247.195 43.5234 246.845C43.745 246.491 44.0411 246.214 44.4119 246.014C44.7826 245.814 45.1917 245.665 45.6391 245.567C46.0908 245.464 46.5447 245.384 47.0006 245.324C47.5972 245.247 48.0809 245.19 48.4516 245.151C48.8266 245.109 49.0994 245.038 49.2698 244.94C49.4445 244.842 49.5319 244.672 49.5319 244.429V244.378C49.5319 243.747 49.3593 243.257 49.0141 242.908C48.6732 242.558 48.1555 242.384 47.4609 242.384C46.7407 242.384 46.1761 242.541 45.767 242.857C45.3579 243.172 45.0702 243.509 44.9041 243.866L43.4722 243.355C43.7279 242.759 44.0688 242.294 44.495 241.962C44.9254 241.625 45.3941 241.391 45.9012 241.259C46.4126 241.122 46.9154 241.054 47.4097 241.054C47.7251 241.054 48.0873 241.092 48.4964 241.169C48.9097 241.241 49.3082 241.393 49.6917 241.623C50.0795 241.853 50.4012 242.2 50.6569 242.665C50.9126 243.129 51.0404 243.751 51.0404 244.531V251H49.5319V249.67H49.4552C49.3529 249.884 49.1825 250.112 48.9438 250.354C48.7052 250.597 48.3877 250.804 47.9914 250.974C47.5951 251.145 47.1114 251.23 46.5404 251.23ZM46.7705 249.875C47.3671 249.875 47.87 249.758 48.2791 249.523C48.6924 249.289 49.0035 248.987 49.2123 248.616C49.4254 248.245 49.5319 247.855 49.5319 247.446V246.065C49.468 246.142 49.3273 246.212 49.11 246.276C48.8969 246.336 48.6498 246.389 48.3685 246.436C48.0916 246.479 47.821 246.517 47.5568 246.551C47.2968 246.581 47.0859 246.607 46.9239 246.628C46.5319 246.679 46.1654 246.762 45.8245 246.877C45.4879 246.988 45.2151 247.156 45.0063 247.382C44.8018 247.604 44.6995 247.906 44.6995 248.29C44.6995 248.814 44.8934 249.21 45.2812 249.479C45.6732 249.743 46.1697 249.875 46.7705 249.875ZM58.0637 241.182V242.46H52.9756V241.182H58.0637ZM54.4586 238.83H55.9671V248.188C55.9671 248.614 56.0289 248.933 56.1525 249.146C56.2803 249.355 56.4422 249.496 56.6382 249.568C56.8385 249.636 57.0495 249.67 57.2711 249.67C57.4373 249.67 57.5736 249.662 57.6802 249.645C57.7867 249.624 57.8719 249.607 57.9358 249.594L58.2427 250.949C58.1404 250.987 57.9976 251.026 57.8144 251.064C57.6311 251.107 57.3989 251.128 57.1177 251.128C56.6915 251.128 56.2739 251.036 55.8648 250.853C55.46 250.67 55.1233 250.391 54.8549 250.016C54.5907 249.641 54.4586 249.168 54.4586 248.597V238.83ZM64.3439 251.205C63.3978 251.205 62.5818 250.996 61.8957 250.578C61.2139 250.156 60.6876 249.568 60.3169 248.814C59.9504 248.055 59.7672 247.173 59.7672 246.168C59.7672 245.162 59.9504 244.276 60.3169 243.509C60.6876 242.737 61.2032 242.136 61.8637 241.706C62.5285 241.271 63.3041 241.054 64.1905 241.054C64.7018 241.054 65.2068 241.139 65.7054 241.31C66.2039 241.48 66.6578 241.757 67.0669 242.141C67.476 242.52 67.802 243.023 68.0449 243.649C68.2878 244.276 68.4092 245.047 68.4092 245.963V246.602H60.841V245.298H66.8751C66.8751 244.744 66.7643 244.25 66.5427 243.815C66.3254 243.381 66.0143 243.038 65.6095 242.786C65.2089 242.535 64.7359 242.409 64.1905 242.409C63.5896 242.409 63.0697 242.558 62.6308 242.857C62.1961 243.151 61.8616 243.534 61.6272 244.007C61.3929 244.48 61.2757 244.987 61.2757 245.528V246.398C61.2757 247.139 61.4035 247.768 61.6592 248.283C61.9191 248.795 62.2792 249.185 62.7395 249.453C63.1997 249.717 63.7345 249.849 64.3439 249.849C64.7402 249.849 65.0981 249.794 65.4177 249.683C65.7416 249.568 66.0207 249.398 66.2551 249.172C66.4895 248.942 66.6706 248.656 66.7984 248.315L68.2558 248.724C68.1024 249.219 67.8446 249.653 67.4824 250.028C67.1201 250.399 66.6727 250.689 66.14 250.898C65.6074 251.102 65.0086 251.205 64.3439 251.205ZM69.2785 239.315V237.909H79.0967V239.315H74.9802V251H73.395V239.315H69.2785ZM81.1853 254.682C80.9296 254.682 80.7016 254.661 80.5014 254.618C80.3011 254.58 80.1626 254.541 80.0859 254.503L80.4694 253.173C80.8359 253.267 81.1597 253.301 81.441 253.276C81.7222 253.25 81.9715 253.124 82.1889 252.898C82.4104 252.677 82.6129 252.317 82.7961 251.818L83.0773 251.051L79.4467 241.182H81.083L83.7933 249.006H83.8955L86.6058 241.182H88.2421L84.0745 252.432C83.887 252.939 83.6548 253.359 83.3778 253.691C83.1008 254.028 82.7791 254.277 82.4126 254.439C82.0504 254.601 81.6413 254.682 81.1853 254.682ZM90.2332 254.682V241.182H91.6906V242.741H91.8696C91.9804 242.571 92.1338 242.354 92.3298 242.089C92.5301 241.821 92.8156 241.582 93.1864 241.374C93.5614 241.161 94.0685 241.054 94.7077 241.054C95.5344 241.054 96.2631 241.261 96.8938 241.674C97.5244 242.087 98.0166 242.673 98.3703 243.432C98.724 244.19 98.9009 245.085 98.9009 246.116C98.9009 247.156 98.724 248.058 98.3703 248.82C98.0166 249.579 97.5266 250.167 96.9001 250.585C96.2737 250.998 95.5514 251.205 94.7332 251.205C94.1026 251.205 93.5976 251.1 93.2183 250.891C92.8391 250.678 92.5472 250.437 92.3426 250.169C92.1381 249.896 91.9804 249.67 91.8696 249.491H91.7418V254.682H90.2332ZM91.7162 246.091C91.7162 246.832 91.8249 247.487 92.0422 248.053C92.2595 248.616 92.577 249.057 92.9946 249.376C93.4122 249.692 93.9236 249.849 94.5287 249.849C95.1594 249.849 95.6857 249.683 96.1075 249.351C96.5337 249.014 96.8533 248.562 97.0663 247.996C97.2837 247.425 97.3923 246.79 97.3923 246.091C97.3923 245.401 97.2858 244.778 97.0727 244.224C96.8639 243.666 96.5465 243.225 96.1203 242.901C95.6984 242.573 95.1679 242.409 94.5287 242.409C93.9151 242.409 93.3994 242.565 92.9818 242.876C92.5642 243.183 92.2489 243.613 92.0358 244.167C91.8227 244.717 91.7162 245.358 91.7162 246.091ZM105.318 251.205C104.372 251.205 103.556 250.996 102.87 250.578C102.188 250.156 101.662 249.568 101.291 248.814C100.925 248.055 100.742 247.173 100.742 246.168C100.742 245.162 100.925 244.276 101.291 243.509C101.662 242.737 102.178 242.136 102.838 241.706C103.503 241.271 104.279 241.054 105.165 241.054C105.676 241.054 106.181 241.139 106.68 241.31C107.179 241.48 107.632 241.757 108.041 242.141C108.451 242.52 108.777 243.023 109.019 243.649C109.262 244.276 109.384 245.047 109.384 245.963V246.602H101.816V245.298H107.85C107.85 244.744 107.739 244.25 107.517 243.815C107.3 243.381 106.989 243.038 106.584 242.786C106.184 242.535 105.711 242.409 105.165 242.409C104.564 242.409 104.044 242.558 103.605 242.857C103.171 243.151 102.836 243.534 102.602 244.007C102.367 244.48 102.25 244.987 102.25 245.528V246.398C102.25 247.139 102.378 247.768 102.634 248.283C102.894 248.795 103.254 249.185 103.714 249.453C104.174 249.717 104.709 249.849 105.318 249.849C105.715 249.849 106.073 249.794 106.392 249.683C106.716 249.568 106.995 249.398 107.23 249.172C107.464 248.942 107.645 248.656 107.773 248.315L109.23 248.724C109.077 249.219 108.819 249.653 108.457 250.028C108.095 250.399 107.647 250.689 107.115 250.898C106.582 251.102 105.983 251.205 105.318 251.205Z" fill="white"/>
<rect x="17.5" y="73.5" width="129" height="31" rx="15.5" fill="#CCCCCC"/>
<path d="M92.3693 95.2045C91.4489 95.2045 90.6563 94.9872 89.9915 94.5526C89.3267 94.1179 88.8153 93.5192 88.4574 92.7564C88.0994 91.9936 87.9205 91.1222 87.9205 90.142C87.9205 89.1449 88.1037 88.2649 88.4702 87.5021C88.8409 86.7351 89.3565 86.1364 90.017 85.706C90.6818 85.2713 91.4574 85.054 92.3438 85.054C93.0341 85.054 93.6562 85.1818 94.2102 85.4375C94.7642 85.6932 95.218 86.0511 95.5717 86.5114C95.9254 86.9716 96.1449 87.5085 96.2301 88.1222H94.7216C94.6065 87.6747 94.3509 87.2784 93.9545 86.9332C93.5625 86.5838 93.0341 86.4091 92.3693 86.4091C91.7813 86.4091 91.2656 86.5625 90.8224 86.8693C90.3835 87.1719 90.0405 87.6001 89.7933 88.1541C89.5504 88.7038 89.429 89.3494 89.429 90.0909C89.429 90.8494 89.5483 91.5099 89.7869 92.0724C90.0298 92.6349 90.3707 93.0717 90.8097 93.3828C91.2528 93.6939 91.7727 93.8494 92.3693 93.8494C92.7614 93.8494 93.1172 93.7812 93.4368 93.6449C93.7564 93.5085 94.027 93.3125 94.2486 93.0568C94.4702 92.8011 94.6278 92.4943 94.7216 92.1364H96.2301C96.1449 92.7159 95.9339 93.2379 95.5973 93.7024C95.2649 94.1626 94.8239 94.5291 94.2741 94.8018C93.7287 95.0703 93.0938 95.2045 92.3693 95.2045ZM102.424 95.2045C101.538 95.2045 100.76 94.9936 100.091 94.5717C99.4261 94.1499 98.9062 93.5597 98.5312 92.8011C98.1605 92.0426 97.9751 91.1562 97.9751 90.142C97.9751 89.1193 98.1605 88.2266 98.5312 87.4638C98.9062 86.701 99.4261 86.1087 100.091 85.6868C100.76 85.2649 101.538 85.054 102.424 85.054C103.31 85.054 104.086 85.2649 104.751 85.6868C105.42 86.1087 105.94 86.701 106.31 87.4638C106.685 88.2266 106.873 89.1193 106.873 90.142C106.873 91.1562 106.685 92.0426 106.31 92.8011C105.94 93.5597 105.42 94.1499 104.751 94.5717C104.086 94.9936 103.31 95.2045 102.424 95.2045ZM102.424 93.8494C103.097 93.8494 103.651 93.6768 104.086 93.3317C104.521 92.9865 104.842 92.5327 105.051 91.9702C105.26 91.4077 105.364 90.7983 105.364 90.142C105.364 89.4858 105.26 88.8743 105.051 88.3075C104.842 87.7408 104.521 87.2827 104.086 86.9332C103.651 86.5838 103.097 86.4091 102.424 86.4091C101.751 86.4091 101.197 86.5838 100.762 86.9332C100.327 87.2827 100.006 87.7408 99.7969 88.3075C99.5881 88.8743 99.4837 89.4858 99.4837 90.142C99.4837 90.7983 99.5881 91.4077 99.7969 91.9702C100.006 92.5327 100.327 92.9865 100.762 93.3317C101.197 93.6768 101.751 93.8494 102.424 93.8494ZM112.883 95.2045C112.065 95.2045 111.343 94.9979 110.716 94.5845C110.09 94.1669 109.6 93.5788 109.246 92.8203C108.892 92.0575 108.715 91.1562 108.715 90.1165C108.715 89.0852 108.892 88.1903 109.246 87.4318C109.6 86.6733 110.092 86.0874 110.722 85.674C111.353 85.2607 112.082 85.054 112.909 85.054C113.548 85.054 114.053 85.1605 114.423 85.3736C114.798 85.5824 115.084 85.821 115.28 86.0895C115.48 86.3537 115.636 86.571 115.747 86.7415H115.874V81.9091H117.383V95H115.926V93.4915H115.747C115.636 93.6705 115.478 93.8963 115.274 94.169C115.069 94.4375 114.777 94.6783 114.398 94.8913C114.019 95.1001 113.514 95.2045 112.883 95.2045ZM113.088 93.8494C113.693 93.8494 114.204 93.6918 114.622 93.3764C115.039 93.0568 115.357 92.6158 115.574 92.0533C115.791 91.4865 115.9 90.8324 115.9 90.0909C115.9 89.358 115.794 88.7166 115.58 88.1669C115.367 87.6129 115.052 87.1825 114.634 86.8757C114.217 86.5646 113.701 86.4091 113.088 86.4091C112.448 86.4091 111.916 86.5732 111.49 86.9013C111.068 87.2251 110.75 87.6662 110.537 88.2244C110.328 88.7784 110.224 89.4006 110.224 90.0909C110.224 90.7898 110.33 91.4247 110.544 91.9957C110.761 92.5625 111.08 93.0142 111.502 93.3509C111.928 93.6832 112.457 93.8494 113.088 93.8494ZM124.472 95.2045C123.526 95.2045 122.71 94.9957 122.024 94.5781C121.342 94.1562 120.816 93.5682 120.445 92.8139C120.078 92.0554 119.895 91.1733 119.895 90.1676C119.895 89.1619 120.078 88.2756 120.445 87.5085C120.816 86.7372 121.331 86.1364 121.992 85.706C122.656 85.2713 123.432 85.054 124.318 85.054C124.83 85.054 125.335 85.1392 125.833 85.3097C126.332 85.4801 126.786 85.7571 127.195 86.1406C127.604 86.5199 127.93 87.0227 128.173 87.6491C128.416 88.2756 128.537 89.0469 128.537 89.9631V90.6023H120.969V89.2983H127.003C127.003 88.7443 126.892 88.25 126.671 87.8153C126.453 87.3807 126.142 87.0376 125.737 86.7862C125.337 86.5348 124.864 86.4091 124.318 86.4091C123.718 86.4091 123.198 86.5582 122.759 86.8565C122.324 87.1506 121.99 87.5341 121.755 88.0071C121.521 88.4801 121.404 88.9872 121.404 89.5284V90.3977C121.404 91.1392 121.531 91.7678 121.787 92.2834C122.047 92.7947 122.407 93.1847 122.867 93.4531C123.328 93.7173 123.862 93.8494 124.472 93.8494C124.868 93.8494 125.226 93.794 125.546 93.6832C125.869 93.5682 126.149 93.3977 126.383 93.1719C126.617 92.9418 126.798 92.6562 126.926 92.3153L128.384 92.7244C128.23 93.2188 127.972 93.6534 127.61 94.0284C127.248 94.3991 126.801 94.6889 126.268 94.8977C125.735 95.1023 125.137 95.2045 124.472 95.2045Z" fill="black"/>
<rect x="17.5" y="73.5" width="129" height="31" rx="15.5" stroke="black" stroke-width="3"/>
<path d="M19 89C19 81.268 25.268 75 33 75H71C73.7614 75 76 77.2386 76 80V98C76 100.761 73.7614 103 71 103H33C25.268 103 19 96.732 19 89V89Z" fill="#6C6C6C"/>
<path d="M38.3838 95V85.1818H39.8924V95H38.3838ZM39.1509 83.5455C38.8568 83.5455 38.6033 83.4453 38.3902 83.245C38.1814 83.0447 38.077 82.804 38.077 82.5227C38.077 82.2415 38.1814 82.0007 38.3902 81.8004C38.6033 81.6001 38.8568 81.5 39.1509 81.5C39.4449 81.5 39.6963 81.6001 39.9051 81.8004C40.1182 82.0007 40.2247 82.2415 40.2247 82.5227C40.2247 82.804 40.1182 83.0447 39.9051 83.245C39.6963 83.4453 39.4449 83.5455 39.1509 83.5455ZM44.1638 89.0938V95H42.6553V85.1818H44.1127V86.7159H44.2405C44.4707 86.2173 44.8201 85.8168 45.2888 85.5142C45.7576 85.2074 46.3627 85.054 47.1042 85.054C47.769 85.054 48.3506 85.1903 48.8492 85.4631C49.3478 85.7315 49.7356 86.1406 50.0126 86.6903C50.2896 87.2358 50.428 87.9261 50.428 88.7614V95H48.9195V88.8636C48.9195 88.0923 48.7192 87.4915 48.3187 87.0611C47.9181 86.6264 47.3684 86.4091 46.6695 86.4091C46.188 86.4091 45.7576 86.5135 45.3783 86.7223C45.0033 86.9311 44.7072 87.2358 44.4898 87.6364C44.2725 88.0369 44.1638 88.5227 44.1638 89.0938ZM57.4545 85.1818V86.4602H52.3664V85.1818H57.4545ZM53.8494 82.8295H55.3579V92.1875C55.3579 92.6136 55.4197 92.9332 55.5433 93.1463C55.6711 93.3551 55.8331 93.4957 56.0291 93.5682C56.2294 93.6364 56.4403 93.6705 56.6619 93.6705C56.8281 93.6705 56.9644 93.6619 57.071 93.6449C57.1775 93.6236 57.2627 93.6065 57.3267 93.5938L57.6335 94.9489C57.5312 94.9872 57.3885 95.0256 57.2052 95.0639C57.022 95.1065 56.7897 95.1278 56.5085 95.1278C56.0823 95.1278 55.6647 95.0362 55.2556 94.853C54.8508 94.6697 54.5142 94.3906 54.2457 94.0156C53.9815 93.6406 53.8494 93.1676 53.8494 92.5966V82.8295Z" fill="white"/>
<rect x="17.5" y="112.5" width="129" height="31" rx="15.5" fill="#CCCCCC"/>
<path d="M95.3352 126.381L93.9801 126.764C93.8949 126.538 93.7692 126.319 93.603 126.106C93.4411 125.888 93.2195 125.71 92.9382 125.569C92.657 125.428 92.2969 125.358 91.858 125.358C91.2571 125.358 90.7564 125.496 90.3558 125.773C89.9595 126.046 89.7614 126.393 89.7614 126.815C89.7614 127.19 89.8977 127.487 90.1705 127.704C90.4432 127.921 90.8693 128.102 91.4489 128.247L92.9062 128.605C93.7841 128.818 94.4382 129.144 94.8686 129.583C95.299 130.018 95.5142 130.578 95.5142 131.264C95.5142 131.827 95.3523 132.33 95.0284 132.773C94.7088 133.216 94.2614 133.565 93.6861 133.821C93.1108 134.077 92.4418 134.205 91.679 134.205C90.6776 134.205 89.8487 133.987 89.1925 133.553C88.5362 133.118 88.1207 132.483 87.946 131.648L89.3778 131.29C89.5142 131.818 89.772 132.214 90.1513 132.479C90.5348 132.743 91.0355 132.875 91.6534 132.875C92.3565 132.875 92.9148 132.726 93.3281 132.428C93.7457 132.125 93.9545 131.763 93.9545 131.341C93.9545 131 93.8352 130.714 93.5966 130.484C93.358 130.25 92.9915 130.075 92.4972 129.96L90.8608 129.577C89.9616 129.364 89.3011 129.033 88.8793 128.586C88.4616 128.134 88.2528 127.57 88.2528 126.892C88.2528 126.338 88.4084 125.848 88.7195 125.422C89.0348 124.996 89.4631 124.661 90.0043 124.418C90.5497 124.175 91.1676 124.054 91.858 124.054C92.8295 124.054 93.5923 124.267 94.1463 124.693C94.7045 125.119 95.1009 125.682 95.3352 126.381ZM102.055 124.182V125.46H96.9668V124.182H102.055ZM98.4498 121.83H99.9583V131.188C99.9583 131.614 100.02 131.933 100.144 132.146C100.271 132.355 100.433 132.496 100.629 132.568C100.83 132.636 101.041 132.67 101.262 132.67C101.428 132.67 101.565 132.662 101.671 132.645C101.778 132.624 101.863 132.607 101.927 132.594L102.234 133.949C102.132 133.987 101.989 134.026 101.806 134.064C101.622 134.107 101.39 134.128 101.109 134.128C100.683 134.128 100.265 134.036 99.856 133.853C99.4512 133.67 99.1145 133.391 98.8461 133.016C98.5819 132.641 98.4498 132.168 98.4498 131.597V121.83ZM107.213 134.23C106.591 134.23 106.026 134.113 105.519 133.879C105.012 133.64 104.61 133.297 104.311 132.849C104.013 132.398 103.864 131.852 103.864 131.213C103.864 130.651 103.975 130.195 104.196 129.845C104.418 129.491 104.714 129.214 105.085 129.014C105.455 128.814 105.865 128.665 106.312 128.567C106.764 128.464 107.218 128.384 107.673 128.324C108.27 128.247 108.754 128.19 109.124 128.151C109.499 128.109 109.772 128.038 109.943 127.94C110.117 127.842 110.205 127.672 110.205 127.429V127.378C110.205 126.747 110.032 126.257 109.687 125.908C109.346 125.558 108.828 125.384 108.134 125.384C107.414 125.384 106.849 125.541 106.44 125.857C106.031 126.172 105.743 126.509 105.577 126.866L104.145 126.355C104.401 125.759 104.742 125.294 105.168 124.962C105.598 124.625 106.067 124.391 106.574 124.259C107.085 124.122 107.588 124.054 108.083 124.054C108.398 124.054 108.76 124.092 109.169 124.169C109.583 124.241 109.981 124.393 110.365 124.623C110.752 124.853 111.074 125.2 111.33 125.665C111.585 126.129 111.713 126.751 111.713 127.531V134H110.205V132.67H110.128C110.026 132.884 109.855 133.112 109.617 133.354C109.378 133.597 109.061 133.804 108.664 133.974C108.268 134.145 107.784 134.23 107.213 134.23ZM107.443 132.875C108.04 132.875 108.543 132.758 108.952 132.523C109.365 132.289 109.676 131.987 109.885 131.616C110.098 131.245 110.205 130.855 110.205 130.446V129.065C110.141 129.142 110 129.212 109.783 129.276C109.57 129.336 109.323 129.389 109.041 129.436C108.764 129.479 108.494 129.517 108.23 129.551C107.97 129.581 107.759 129.607 107.597 129.628C107.205 129.679 106.838 129.762 106.497 129.877C106.161 129.988 105.888 130.156 105.679 130.382C105.475 130.604 105.372 130.906 105.372 131.29C105.372 131.814 105.566 132.21 105.954 132.479C106.346 132.743 106.843 132.875 107.443 132.875ZM118.737 124.182V125.46H113.648V124.182H118.737ZM115.131 121.83H116.64V131.188C116.64 131.614 116.702 131.933 116.825 132.146C116.953 132.355 117.115 132.496 117.311 132.568C117.511 132.636 117.722 132.67 117.944 132.67C118.11 132.67 118.246 132.662 118.353 132.645C118.46 132.624 118.545 132.607 118.609 132.594L118.915 133.949C118.813 133.987 118.67 134.026 118.487 134.064C118.304 134.107 118.072 134.128 117.79 134.128C117.364 134.128 116.947 134.036 116.538 133.853C116.133 133.67 115.796 133.391 115.528 133.016C115.263 132.641 115.131 132.168 115.131 131.597V121.83ZM125.017 134.205C124.071 134.205 123.255 133.996 122.569 133.578C121.887 133.156 121.36 132.568 120.99 131.814C120.623 131.055 120.44 130.173 120.44 129.168C120.44 128.162 120.623 127.276 120.99 126.509C121.36 125.737 121.876 125.136 122.537 124.706C123.201 124.271 123.977 124.054 124.863 124.054C125.375 124.054 125.88 124.139 126.378 124.31C126.877 124.48 127.331 124.757 127.74 125.141C128.149 125.52 128.475 126.023 128.718 126.649C128.961 127.276 129.082 128.047 129.082 128.963V129.602H121.514V128.298H127.548C127.548 127.744 127.437 127.25 127.216 126.815C126.998 126.381 126.687 126.038 126.282 125.786C125.882 125.535 125.409 125.409 124.863 125.409C124.262 125.409 123.743 125.558 123.304 125.857C122.869 126.151 122.534 126.534 122.3 127.007C122.066 127.48 121.949 127.987 121.949 128.528V129.398C121.949 130.139 122.076 130.768 122.332 131.283C122.592 131.795 122.952 132.185 123.412 132.453C123.873 132.717 124.407 132.849 125.017 132.849C125.413 132.849 125.771 132.794 126.091 132.683C126.414 132.568 126.694 132.398 126.928 132.172C127.162 131.942 127.343 131.656 127.471 131.315L128.929 131.724C128.775 132.219 128.517 132.653 128.155 133.028C127.793 133.399 127.346 133.689 126.813 133.898C126.28 134.102 125.681 134.205 125.017 134.205Z" fill="black"/>
<rect x="17.5" y="112.5" width="129" height="31" rx="15.5" stroke="black" stroke-width="3"/>
<path d="M19 128C19 120.268 25.268 114 33 114H71C73.7614 114 76 116.239 76 119V137C76 139.761 73.7614 142 71 142H33C25.268 142 19 135.732 19 128V128Z" fill="#6C6C6C"/>
<path d="M38.3838 134V124.182H39.8924V134H38.3838ZM39.1509 122.545C38.8568 122.545 38.6033 122.445 38.3902 122.245C38.1814 122.045 38.077 121.804 38.077 121.523C38.077 121.241 38.1814 121.001 38.3902 120.8C38.6033 120.6 38.8568 120.5 39.1509 120.5C39.4449 120.5 39.6963 120.6 39.9051 120.8C40.1182 121.001 40.2247 121.241 40.2247 121.523C40.2247 121.804 40.1182 122.045 39.9051 122.245C39.6963 122.445 39.4449 122.545 39.1509 122.545ZM44.1638 128.094V134H42.6553V124.182H44.1127V125.716H44.2405C44.4707 125.217 44.8201 124.817 45.2888 124.514C45.7576 124.207 46.3627 124.054 47.1042 124.054C47.769 124.054 48.3506 124.19 48.8492 124.463C49.3478 124.732 49.7356 125.141 50.0126 125.69C50.2896 126.236 50.428 126.926 50.428 127.761V134H48.9195V127.864C48.9195 127.092 48.7192 126.491 48.3187 126.061C47.9181 125.626 47.3684 125.409 46.6695 125.409C46.188 125.409 45.7576 125.513 45.3783 125.722C45.0033 125.931 44.7072 126.236 44.4898 126.636C44.2725 127.037 44.1638 127.523 44.1638 128.094ZM57.4545 124.182V125.46H52.3664V124.182H57.4545ZM53.8494 121.83H55.3579V131.188C55.3579 131.614 55.4197 131.933 55.5433 132.146C55.6711 132.355 55.8331 132.496 56.0291 132.568C56.2294 132.636 56.4403 132.67 56.6619 132.67C56.8281 132.67 56.9644 132.662 57.071 132.645C57.1775 132.624 57.2627 132.607 57.3267 132.594L57.6335 133.949C57.5312 133.987 57.3885 134.026 57.2052 134.064C57.022 134.107 56.7897 134.128 56.5085 134.128C56.0823 134.128 55.6647 134.036 55.2556 133.853C54.8508 133.67 54.5142 133.391 54.2457 133.016C53.9815 132.641 53.8494 132.168 53.8494 131.597V121.83Z" fill="white"/>
<rect x="17.5" y="151.5" width="125" height="31" rx="15.5" fill="#CCCCCC"/>
<path d="M92.6506 163.182V164.46H87.5625V163.182H92.6506ZM89.0455 160.83H90.554V170.188C90.554 170.614 90.6158 170.933 90.7393 171.146C90.8672 171.355 91.0291 171.496 91.2251 171.568C91.4254 171.636 91.6364 171.67 91.858 171.67C92.0241 171.67 92.1605 171.662 92.267 171.645C92.3736 171.624 92.4588 171.607 92.5227 171.594L92.8295 172.949C92.7273 172.987 92.5845 173.026 92.4013 173.064C92.218 173.107 91.9858 173.128 91.7045 173.128C91.2784 173.128 90.8608 173.036 90.4517 172.853C90.0469 172.67 89.7102 172.391 89.4418 172.016C89.1776 171.641 89.0455 171.168 89.0455 170.597V160.83ZM95.8913 176.682C95.6357 176.682 95.4077 176.661 95.2074 176.618C95.0071 176.58 94.8686 176.541 94.7919 176.503L95.1754 175.173C95.5419 175.267 95.8658 175.301 96.147 175.276C96.4283 175.25 96.6776 175.124 96.8949 174.898C97.1165 174.677 97.3189 174.317 97.5021 173.818L97.7834 173.051L94.1527 163.182H95.7891L98.4993 171.006H98.6016L101.312 163.182H102.948L98.7805 174.432C98.593 174.939 98.3608 175.359 98.0838 175.691C97.8068 176.028 97.4851 176.277 97.1186 176.439C96.7564 176.601 96.3473 176.682 95.8913 176.682ZM104.939 176.682V163.182H106.397V164.741H106.576C106.686 164.571 106.84 164.354 107.036 164.089C107.236 163.821 107.522 163.582 107.892 163.374C108.267 163.161 108.775 163.054 109.414 163.054C110.24 163.054 110.969 163.261 111.6 163.674C112.23 164.087 112.723 164.673 113.076 165.432C113.43 166.19 113.607 167.085 113.607 168.116C113.607 169.156 113.43 170.058 113.076 170.82C112.723 171.579 112.233 172.167 111.606 172.585C110.98 172.998 110.257 173.205 109.439 173.205C108.809 173.205 108.304 173.1 107.924 172.891C107.545 172.678 107.253 172.437 107.049 172.169C106.844 171.896 106.686 171.67 106.576 171.491H106.448V176.682H104.939ZM106.422 168.091C106.422 168.832 106.531 169.487 106.748 170.053C106.966 170.616 107.283 171.057 107.701 171.376C108.118 171.692 108.63 171.849 109.235 171.849C109.865 171.849 110.392 171.683 110.814 171.351C111.24 171.014 111.559 170.562 111.772 169.996C111.99 169.425 112.098 168.79 112.098 168.091C112.098 167.401 111.992 166.778 111.779 166.224C111.57 165.666 111.252 165.225 110.826 164.901C110.404 164.573 109.874 164.409 109.235 164.409C108.621 164.409 108.105 164.565 107.688 164.876C107.27 165.183 106.955 165.613 106.742 166.167C106.529 166.717 106.422 167.358 106.422 168.091ZM120.025 173.205C119.078 173.205 118.262 172.996 117.576 172.578C116.895 172.156 116.368 171.568 115.998 170.814C115.631 170.055 115.448 169.173 115.448 168.168C115.448 167.162 115.631 166.276 115.998 165.509C116.368 164.737 116.884 164.136 117.544 163.706C118.209 163.271 118.985 163.054 119.871 163.054C120.382 163.054 120.887 163.139 121.386 163.31C121.885 163.48 122.338 163.757 122.748 164.141C123.157 164.52 123.483 165.023 123.725 165.649C123.968 166.276 124.09 167.047 124.09 167.963V168.602H116.522V167.298H122.556C122.556 166.744 122.445 166.25 122.223 165.815C122.006 165.381 121.695 165.038 121.29 164.786C120.89 164.535 120.417 164.409 119.871 164.409C119.27 164.409 118.75 164.558 118.311 164.857C117.877 165.151 117.542 165.534 117.308 166.007C117.074 166.48 116.956 166.987 116.956 167.528V168.398C116.956 169.139 117.084 169.768 117.34 170.283C117.6 170.795 117.96 171.185 118.42 171.453C118.88 171.717 119.415 171.849 120.025 171.849C120.421 171.849 120.779 171.794 121.098 171.683C121.422 171.568 121.701 171.398 121.936 171.172C122.17 170.942 122.351 170.656 122.479 170.315L123.936 170.724C123.783 171.219 123.525 171.653 123.163 172.028C122.801 172.399 122.353 172.689 121.821 172.898C121.288 173.102 120.689 173.205 120.025 173.205Z" fill="black"/>
<rect x="17.5" y="151.5" width="125" height="31" rx="15.5" stroke="black" stroke-width="3"/>
<path d="M19 167C19 159.268 25.268 153 33 153H71C73.7614 153 76 155.239 76 158V176C76 178.761 73.7614 181 71 181H33C25.268 181 19 174.732 19 167V167Z" fill="#6C6C6C"/>
<path d="M38.3838 173V163.182H39.8924V173H38.3838ZM39.1509 161.545C38.8568 161.545 38.6033 161.445 38.3902 161.245C38.1814 161.045 38.077 160.804 38.077 160.523C38.077 160.241 38.1814 160.001 38.3902 159.8C38.6033 159.6 38.8568 159.5 39.1509 159.5C39.4449 159.5 39.6963 159.6 39.9051 159.8C40.1182 160.001 40.2247 160.241 40.2247 160.523C40.2247 160.804 40.1182 161.045 39.9051 161.245C39.6963 161.445 39.4449 161.545 39.1509 161.545ZM44.1638 167.094V173H42.6553V163.182H44.1127V164.716H44.2405C44.4707 164.217 44.8201 163.817 45.2888 163.514C45.7576 163.207 46.3627 163.054 47.1042 163.054C47.769 163.054 48.3506 163.19 48.8492 163.463C49.3478 163.732 49.7356 164.141 50.0126 164.69C50.2896 165.236 50.428 165.926 50.428 166.761V173H48.9195V166.864C48.9195 166.092 48.7192 165.491 48.3187 165.061C47.9181 164.626 47.3684 164.409 46.6695 164.409C46.188 164.409 45.7576 164.513 45.3783 164.722C45.0033 164.931 44.7072 165.236 44.4898 165.636C44.2725 166.037 44.1638 166.523 44.1638 167.094ZM57.4545 163.182V164.46H52.3664V163.182H57.4545ZM53.8494 160.83H55.3579V170.188C55.3579 170.614 55.4197 170.933 55.5433 171.146C55.6711 171.355 55.8331 171.496 56.0291 171.568C56.2294 171.636 56.4403 171.67 56.6619 171.67C56.8281 171.67 56.9644 171.662 57.071 171.645C57.1775 171.624 57.2627 171.607 57.3267 171.594L57.6335 172.949C57.5312 172.987 57.3885 173.026 57.2052 173.064C57.022 173.107 56.7897 173.128 56.5085 173.128C56.0823 173.128 55.6647 173.036 55.2556 172.853C54.8508 172.67 54.5142 172.391 54.2457 172.016C53.9815 171.641 53.8494 171.168 53.8494 170.597V160.83Z" fill="white"/>
<rect x="17.5" y="190.5" width="157" height="31" rx="15.5" fill="#CCCCCC"/>
<path d="M92.0881 212.205C91.2699 212.205 90.5476 211.998 89.9212 211.585C89.2947 211.167 88.8047 210.579 88.451 209.82C88.0973 209.058 87.9205 208.156 87.9205 207.116C87.9205 206.085 88.0973 205.19 88.451 204.432C88.8047 203.673 89.2969 203.087 89.9276 202.674C90.5582 202.261 91.2869 202.054 92.1136 202.054C92.7528 202.054 93.2578 202.161 93.6286 202.374C94.0036 202.582 94.2891 202.821 94.4851 203.089C94.6854 203.354 94.8409 203.571 94.9517 203.741H95.0795V198.909H96.5881V212H95.1307V210.491H94.9517C94.8409 210.67 94.6832 210.896 94.4787 211.169C94.2741 211.437 93.9822 211.678 93.603 211.891C93.2237 212.1 92.7188 212.205 92.0881 212.205ZM92.2926 210.849C92.8977 210.849 93.4091 210.692 93.8267 210.376C94.2443 210.057 94.5618 209.616 94.7791 209.053C94.9964 208.487 95.1051 207.832 95.1051 207.091C95.1051 206.358 94.9986 205.717 94.7855 205.167C94.5724 204.613 94.2571 204.183 93.8395 203.876C93.4219 203.565 92.9063 203.409 92.2926 203.409C91.6534 203.409 91.1207 203.573 90.6946 203.901C90.2727 204.225 89.9553 204.666 89.7422 205.224C89.5334 205.778 89.429 206.401 89.429 207.091C89.429 207.79 89.5355 208.425 89.7486 208.996C89.9659 209.562 90.2855 210.014 90.7074 210.351C91.1335 210.683 91.6619 210.849 92.2926 210.849ZM105.748 207.986V202.182H107.256V212H105.748V210.338H105.646C105.415 210.837 105.058 211.261 104.572 211.61C104.086 211.955 103.472 212.128 102.731 212.128C102.117 212.128 101.572 211.994 101.094 211.725C100.617 211.452 100.242 211.043 99.9695 210.498C99.6967 209.948 99.5604 209.256 99.5604 208.42V202.182H101.069V208.318C101.069 209.034 101.269 209.605 101.67 210.031C102.075 210.457 102.59 210.67 103.217 210.67C103.592 210.67 103.973 210.575 104.361 210.383C104.753 210.191 105.081 209.897 105.345 209.501C105.614 209.104 105.748 208.599 105.748 207.986ZM110.019 212V202.182H111.477V203.665H111.579C111.758 203.179 112.082 202.785 112.551 202.482C113.019 202.18 113.548 202.028 114.136 202.028C114.247 202.028 114.385 202.031 114.551 202.035C114.718 202.039 114.843 202.045 114.928 202.054V203.588C114.877 203.575 114.76 203.556 114.577 203.531C114.398 203.501 114.208 203.486 114.008 203.486C113.531 203.486 113.105 203.586 112.73 203.786C112.359 203.982 112.065 204.255 111.847 204.604C111.634 204.95 111.528 205.344 111.528 205.787V212H110.019ZM119.606 212.23C118.984 212.23 118.419 212.113 117.912 211.879C117.405 211.64 117.002 211.297 116.704 210.849C116.406 210.398 116.256 209.852 116.256 209.213C116.256 208.651 116.367 208.195 116.589 207.845C116.81 207.491 117.107 207.214 117.477 207.014C117.848 206.814 118.257 206.665 118.705 206.567C119.156 206.464 119.61 206.384 120.066 206.324C120.663 206.247 121.146 206.19 121.517 206.151C121.892 206.109 122.165 206.038 122.335 205.94C122.51 205.842 122.597 205.672 122.597 205.429V205.378C122.597 204.747 122.425 204.257 122.08 203.908C121.739 203.558 121.221 203.384 120.526 203.384C119.806 203.384 119.241 203.541 118.832 203.857C118.423 204.172 118.136 204.509 117.969 204.866L116.538 204.355C116.793 203.759 117.134 203.294 117.56 202.962C117.991 202.625 118.46 202.391 118.967 202.259C119.478 202.122 119.981 202.054 120.475 202.054C120.79 202.054 121.153 202.092 121.562 202.169C121.975 202.241 122.374 202.393 122.757 202.623C123.145 202.853 123.467 203.2 123.722 203.665C123.978 204.129 124.106 204.751 124.106 205.531V212H122.597V210.67H122.521C122.418 210.884 122.248 211.112 122.009 211.354C121.771 211.597 121.453 211.804 121.057 211.974C120.661 212.145 120.177 212.23 119.606 212.23ZM119.836 210.875C120.433 210.875 120.935 210.758 121.344 210.523C121.758 210.289 122.069 209.987 122.278 209.616C122.491 209.245 122.597 208.855 122.597 208.446V207.065C122.533 207.142 122.393 207.212 122.175 207.276C121.962 207.336 121.715 207.389 121.434 207.436C121.157 207.479 120.886 207.517 120.622 207.551C120.362 207.581 120.151 207.607 119.989 207.628C119.597 207.679 119.231 207.762 118.89 207.877C118.553 207.988 118.281 208.156 118.072 208.382C117.867 208.604 117.765 208.906 117.765 209.29C117.765 209.814 117.959 210.21 118.347 210.479C118.739 210.743 119.235 210.875 119.836 210.875ZM131.129 202.182V203.46H126.041V202.182H131.129ZM127.524 199.83H129.032V209.188C129.032 209.614 129.094 209.933 129.218 210.146C129.346 210.355 129.508 210.496 129.704 210.568C129.904 210.636 130.115 210.67 130.336 210.67C130.503 210.67 130.639 210.662 130.746 210.645C130.852 210.624 130.937 210.607 131.001 210.594L131.308 211.949C131.206 211.987 131.063 212.026 130.88 212.064C130.697 212.107 130.464 212.128 130.183 212.128C129.757 212.128 129.339 212.036 128.93 211.853C128.525 211.67 128.189 211.391 127.92 211.016C127.656 210.641 127.524 210.168 127.524 209.597V199.83ZM133.398 212V202.182H134.907V212H133.398ZM134.165 200.545C133.871 200.545 133.618 200.445 133.405 200.245C133.196 200.045 133.091 199.804 133.091 199.523C133.091 199.241 133.196 199.001 133.405 198.8C133.618 198.6 133.871 198.5 134.165 198.5C134.459 198.5 134.711 198.6 134.92 198.8C135.133 199.001 135.239 199.241 135.239 199.523C135.239 199.804 135.133 200.045 134.92 200.245C134.711 200.445 134.459 200.545 134.165 200.545ZM141.658 212.205C140.772 212.205 139.994 211.994 139.325 211.572C138.661 211.15 138.141 210.56 137.766 209.801C137.395 209.043 137.21 208.156 137.21 207.142C137.21 206.119 137.395 205.227 137.766 204.464C138.141 203.701 138.661 203.109 139.325 202.687C139.994 202.265 140.772 202.054 141.658 202.054C142.545 202.054 143.32 202.265 143.985 202.687C144.654 203.109 145.174 203.701 145.545 204.464C145.92 205.227 146.107 206.119 146.107 207.142C146.107 208.156 145.92 209.043 145.545 209.801C145.174 210.56 144.654 211.15 143.985 211.572C143.32 211.994 142.545 212.205 141.658 212.205ZM141.658 210.849C142.332 210.849 142.886 210.677 143.32 210.332C143.755 209.987 144.077 209.533 144.286 208.97C144.494 208.408 144.599 207.798 144.599 207.142C144.599 206.486 144.494 205.874 144.286 205.308C144.077 204.741 143.755 204.283 143.32 203.933C142.886 203.584 142.332 203.409 141.658 203.409C140.985 203.409 140.431 203.584 139.996 203.933C139.562 204.283 139.24 204.741 139.031 205.308C138.822 205.874 138.718 206.486 138.718 207.142C138.718 207.798 138.822 208.408 139.031 208.97C139.24 209.533 139.562 209.987 139.996 210.332C140.431 210.677 140.985 210.849 141.658 210.849ZM149.919 206.094V212H148.41V202.182H149.867V203.716H149.995C150.225 203.217 150.575 202.817 151.044 202.514C151.512 202.207 152.117 202.054 152.859 202.054C153.524 202.054 154.105 202.19 154.604 202.463C155.102 202.732 155.49 203.141 155.767 203.69C156.044 204.236 156.183 204.926 156.183 205.761V212H154.674V205.864C154.674 205.092 154.474 204.491 154.073 204.061C153.673 203.626 153.123 203.409 152.424 203.409C151.943 203.409 151.512 203.513 151.133 203.722C150.758 203.931 150.462 204.236 150.244 204.636C150.027 205.037 149.919 205.523 149.919 206.094Z" fill="black"/>
<rect x="17.5" y="190.5" width="157" height="31" rx="15.5" stroke="black" stroke-width="3"/>
<path d="M19 206C19 198.268 25.268 192 33 192H71C73.7614 192 76 194.239 76 197V215C76 217.761 73.7614 220 71 220H33C25.268 220 19 213.732 19 206V206Z" fill="#6C6C6C"/>
<path d="M38.3838 212V202.182H39.8924V212H38.3838ZM39.1509 200.545C38.8568 200.545 38.6033 200.445 38.3902 200.245C38.1814 200.045 38.077 199.804 38.077 199.523C38.077 199.241 38.1814 199.001 38.3902 198.8C38.6033 198.6 38.8568 198.5 39.1509 198.5C39.4449 198.5 39.6963 198.6 39.9051 198.8C40.1182 199.001 40.2247 199.241 40.2247 199.523C40.2247 199.804 40.1182 200.045 39.9051 200.245C39.6963 200.445 39.4449 200.545 39.1509 200.545ZM44.1638 206.094V212H42.6553V202.182H44.1127V203.716H44.2405C44.4707 203.217 44.8201 202.817 45.2888 202.514C45.7576 202.207 46.3627 202.054 47.1042 202.054C47.769 202.054 48.3506 202.19 48.8492 202.463C49.3478 202.732 49.7356 203.141 50.0126 203.69C50.2896 204.236 50.428 204.926 50.428 205.761V212H48.9195V205.864C48.9195 205.092 48.7192 204.491 48.3187 204.061C47.9181 203.626 47.3684 203.409 46.6695 203.409C46.188 203.409 45.7576 203.513 45.3783 203.722C45.0033 203.931 44.7072 204.236 44.4898 204.636C44.2725 205.037 44.1638 205.523 44.1638 206.094ZM57.4545 202.182V203.46H52.3664V202.182H57.4545ZM53.8494 199.83H55.3579V209.188C55.3579 209.614 55.4197 209.933 55.5433 210.146C55.6711 210.355 55.8331 210.496 56.0291 210.568C56.2294 210.636 56.4403 210.67 56.6619 210.67C56.8281 210.67 56.9644 210.662 57.071 210.645C57.1775 210.624 57.2627 210.607 57.3267 210.594L57.6335 211.949C57.5312 211.987 57.3885 212.026 57.2052 212.064C57.022 212.107 56.7897 212.128 56.5085 212.128C56.0823 212.128 55.6647 212.036 55.2556 211.853C54.8508 211.67 54.5142 211.391 54.2457 211.016C53.9815 210.641 53.8494 210.168 53.8494 209.597V199.83Z" fill="white"/>
<path d="M39.5112 45H29.8607V13.7273H39.9388C42.9724 13.7273 45.5683 14.3533 47.7264 15.6055C49.8846 16.8474 51.5388 18.634 52.6891 20.9652C53.8395 23.2862 54.4146 26.0653 54.4146 29.3026C54.4146 32.5601 53.8344 35.3647 52.6739 37.7163C51.5134 40.0576 49.8235 41.8595 47.6043 43.1218C45.385 44.3739 42.6874 45 39.5112 45ZM33.6476 41.6406H39.2669C41.8526 41.6406 43.9955 41.1418 45.6955 40.1442C47.3956 39.1465 48.663 37.7264 49.4977 35.8839C50.3325 34.0413 50.7499 31.8475 50.7499 29.3026C50.7499 26.7779 50.3376 24.6045 49.513 22.7823C48.6884 20.9499 47.4567 19.5451 45.8177 18.5678C44.1787 17.5804 42.1377 17.0866 39.6945 17.0866H33.6476V41.6406ZM67.1803 45.5497C65.694 45.5497 64.3452 45.2698 63.1337 44.7099C61.9223 44.1398 60.9603 43.3203 60.2477 42.2514C59.5351 41.1723 59.1788 39.8693 59.1788 38.3423C59.1788 36.9986 59.4435 35.9093 59.9729 35.0746C60.5022 34.2296 61.2097 33.5679 62.0954 33.0895C62.981 32.611 63.9583 32.2547 65.0272 32.0206C66.1063 31.7763 67.1904 31.5829 68.2797 31.4403C69.7049 31.2571 70.8603 31.1197 71.746 31.0281C72.6418 30.9263 73.2933 30.7583 73.7005 30.5241C74.1179 30.29 74.3266 29.8828 74.3266 29.3026V29.1804C74.3266 27.6738 73.9143 26.5031 73.0897 25.6683C72.2753 24.8336 71.0385 24.4162 69.3791 24.4162C67.6587 24.4162 66.3099 24.7929 65.3326 25.5462C64.3553 26.2995 63.6682 27.1037 63.2712 27.9588L59.8507 26.7372C60.4615 25.312 61.2759 24.2024 62.2939 23.4084C63.3221 22.6042 64.4419 22.0443 65.6533 21.7287C66.8749 21.4029 68.0761 21.2401 69.257 21.2401C70.0103 21.2401 70.8756 21.3317 71.8529 21.5149C72.8403 21.688 73.7921 22.0494 74.7083 22.5991C75.6347 23.1488 76.4033 23.9785 77.0141 25.0881C77.6249 26.1977 77.9303 27.6839 77.9303 29.5469V45H74.3266V41.8239H74.1433C73.899 42.3329 73.4918 42.8775 72.9217 43.4577C72.3517 44.038 71.5933 44.5317 70.6465 44.9389C69.6998 45.3461 68.5444 45.5497 67.1803 45.5497ZM67.73 42.3125C69.1552 42.3125 70.3564 42.0326 71.3337 41.4727C72.3211 40.9128 73.0643 40.19 73.5631 39.3043C74.0721 38.4187 74.3266 37.4872 74.3266 36.5099V33.2116C74.1739 33.3949 73.8379 33.5629 73.3188 33.7156C72.8098 33.8581 72.2193 33.9853 71.5475 34.0973C70.8858 34.1991 70.2393 34.2907 69.6082 34.3722C68.9872 34.4434 68.4833 34.5045 68.0965 34.5554C67.1599 34.6776 66.2844 34.8761 65.47 35.1509C64.6658 35.4156 64.0143 35.8177 63.5155 36.3572C63.0269 36.8866 62.7825 37.6094 62.7825 38.5256C62.7825 39.7777 63.2457 40.7244 64.1721 41.3658C65.1087 41.9969 66.2946 42.3125 67.73 42.3125ZM84.5078 45V21.5455H87.9893V25.2102H88.2947C88.7833 23.9581 89.5723 22.9859 90.6615 22.2937C91.7508 21.5913 93.0589 21.2401 94.5859 21.2401C96.1332 21.2401 97.421 21.5913 98.4492 22.2937C99.4875 22.9859 100.297 23.9581 100.877 25.2102H101.121C101.722 23.9988 102.623 23.0368 103.824 22.3242C105.025 21.6014 106.466 21.2401 108.146 21.2401C110.243 21.2401 111.958 21.8967 113.292 23.2099C114.625 24.5129 115.292 26.5438 115.292 29.3026V45H111.688V29.3026C111.688 27.572 111.215 26.3351 110.268 25.592C109.321 24.8488 108.207 24.4773 106.924 24.4773C105.275 24.4773 103.997 24.9761 103.091 25.9737C102.185 26.9612 101.732 28.2133 101.732 29.7301V45H98.0674V28.9361C98.0674 27.6025 97.6348 26.5285 96.7695 25.7141C95.9042 24.8896 94.7895 24.4773 93.4254 24.4773C92.4888 24.4773 91.6134 24.7267 90.799 25.2255C89.9947 25.7243 89.3432 26.4165 88.8444 27.3022C88.3558 28.1777 88.1115 29.1906 88.1115 30.3409V45H84.5078ZM128.783 45.5497C127.297 45.5497 125.948 45.2698 124.736 44.7099C123.525 44.1398 122.563 43.3203 121.85 42.2514C121.138 41.1723 120.781 39.8693 120.781 38.3423C120.781 36.9986 121.046 35.9093 121.575 35.0746C122.105 34.2296 122.812 33.5679 123.698 33.0895C124.584 32.611 125.561 32.2547 126.63 32.0206C127.709 31.7763 128.793 31.5829 129.882 31.4403C131.307 31.2571 132.463 31.1197 133.349 31.0281C134.244 30.9263 134.896 30.7583 135.303 30.5241C135.72 30.29 135.929 29.8828 135.929 29.3026V29.1804C135.929 27.6738 135.517 26.5031 134.692 25.6683C133.878 24.8336 132.641 24.4162 130.982 24.4162C129.261 24.4162 127.912 24.7929 126.935 25.5462C125.958 26.2995 125.271 27.1037 124.874 27.9588L121.453 26.7372C122.064 25.312 122.878 24.2024 123.896 23.4084C124.925 22.6042 126.044 22.0443 127.256 21.7287C128.477 21.4029 129.679 21.2401 130.86 21.2401C131.613 21.2401 132.478 21.3317 133.455 21.5149C134.443 21.688 135.395 22.0494 136.311 22.5991C137.237 23.1488 138.006 23.9785 138.617 25.0881C139.227 26.1977 139.533 27.6839 139.533 29.5469V45H135.929V41.8239H135.746C135.502 42.3329 135.094 42.8775 134.524 43.4577C133.954 44.038 133.196 44.5317 132.249 44.9389C131.302 45.3461 130.147 45.5497 128.783 45.5497ZM129.333 42.3125C130.758 42.3125 131.959 42.0326 132.936 41.4727C133.924 40.9128 134.667 40.19 135.166 39.3043C135.675 38.4187 135.929 37.4872 135.929 36.5099V33.2116C135.776 33.3949 135.44 33.5629 134.921 33.7156C134.412 33.8581 133.822 33.9853 133.15 34.0973C132.488 34.1991 131.842 34.2907 131.211 34.3722C130.59 34.4434 130.086 34.5045 129.699 34.5554C128.762 34.6776 127.887 34.8761 127.073 35.1509C126.268 35.4156 125.617 35.8177 125.118 36.3572C124.629 36.8866 124.385 37.6094 124.385 38.5256C124.385 39.7777 124.848 40.7244 125.775 41.3658C126.711 41.9969 127.897 42.3125 129.333 42.3125ZM155.578 54.2841C153.837 54.2841 152.34 54.0601 151.088 53.6122C149.836 53.1745 148.793 52.5942 147.958 51.8714C147.133 51.1589 146.477 50.3954 145.988 49.581L148.859 47.5653C149.185 47.9929 149.597 48.4815 150.096 49.0312C150.595 49.5911 151.277 50.0747 152.142 50.4819C153.017 50.8993 154.163 51.108 155.578 51.108C157.471 51.108 159.034 50.6499 160.265 49.7337C161.497 48.8175 162.113 47.3821 162.113 45.4276V40.6634H161.808C161.543 41.0909 161.166 41.6203 160.678 42.2514C160.199 42.8724 159.507 43.4272 158.601 43.9158C157.705 44.3943 156.494 44.6335 154.967 44.6335C153.073 44.6335 151.373 44.1856 149.867 43.2898C148.37 42.3939 147.184 41.0909 146.309 39.3807C145.444 37.6705 145.011 35.5937 145.011 33.1506C145.011 30.7481 145.433 28.6561 146.278 26.8746C147.123 25.083 148.299 23.6985 149.806 22.7212C151.312 21.7338 153.053 21.2401 155.028 21.2401C156.555 21.2401 157.766 21.4946 158.662 22.0036C159.568 22.5024 160.26 23.0724 160.739 23.7138C161.227 24.3449 161.604 24.8641 161.869 25.2713H162.235V21.5455H165.717V45.6719C165.717 47.6875 165.259 49.3265 164.343 50.5888C163.437 51.8613 162.215 52.7927 160.678 53.3832C159.151 53.9838 157.451 54.2841 155.578 54.2841ZM155.455 41.3963C156.901 41.3963 158.123 41.0655 159.12 40.4038C160.118 39.7421 160.876 38.7902 161.395 37.5483C161.915 36.3063 162.174 34.8201 162.174 33.0895C162.174 31.3996 161.92 29.9083 161.411 28.6154C160.902 27.3226 160.148 26.3097 159.151 25.5767C158.153 24.8437 156.921 24.4773 155.455 24.4773C153.928 24.4773 152.656 24.8641 151.638 25.6378C150.63 26.4115 149.872 27.4498 149.363 28.7528C148.864 30.0559 148.615 31.5014 148.615 33.0895C148.615 34.7183 148.869 36.1587 149.378 37.4109C149.897 38.6528 150.661 39.6301 151.669 40.3427C152.687 41.0451 153.949 41.3963 155.455 41.3963ZM182.147 45.4886C179.887 45.4886 177.938 44.9898 176.299 43.9922C174.67 42.9844 173.413 41.5795 172.527 39.7777C171.652 37.9657 171.214 35.8584 171.214 33.456C171.214 31.0535 171.652 28.9361 172.527 27.1037C173.413 25.2611 174.645 23.8258 176.223 22.7976C177.811 21.7592 179.663 21.2401 181.781 21.2401C183.002 21.2401 184.209 21.4437 185.4 21.8509C186.591 22.258 187.675 22.9197 188.652 23.8359C189.629 24.742 190.408 25.9432 190.989 27.4396C191.569 28.9361 191.859 30.7786 191.859 32.9673V34.4943H173.779V31.3793H188.194C188.194 30.0559 187.929 28.875 187.4 27.8366C186.881 26.7983 186.138 25.9788 185.171 25.3782C184.214 24.7776 183.084 24.4773 181.781 24.4773C180.345 24.4773 179.103 24.8336 178.055 25.5462C177.017 26.2486 176.217 27.1648 175.658 28.2947C175.098 29.4247 174.818 30.6361 174.818 31.929V34.0057C174.818 35.777 175.123 37.2785 175.734 38.5103C176.355 39.7319 177.215 40.6634 178.314 41.3047C179.414 41.9358 180.692 42.2514 182.147 42.2514C183.094 42.2514 183.949 42.1191 184.713 41.8544C185.486 41.5795 186.153 41.1723 186.713 40.6328C187.273 40.0831 187.705 39.401 188.011 38.5866L191.492 39.5639C191.126 40.7448 190.51 41.7831 189.645 42.679C188.779 43.5646 187.711 44.2569 186.438 44.7557C185.166 45.2443 183.735 45.4886 182.147 45.4886ZM193.936 17.0866V13.7273H217.39V17.0866H207.556V45H203.769V17.0866H193.936ZM222.38 53.7955C221.769 53.7955 221.224 53.7446 220.746 53.6428C220.267 53.5511 219.936 53.4595 219.753 53.3679L220.669 50.1918C221.545 50.4157 222.318 50.4972 222.99 50.4361C223.662 50.375 224.258 50.0747 224.777 49.5352C225.306 49.0058 225.79 48.1456 226.228 46.9545L226.899 45.1222L218.226 21.5455H222.135L228.61 40.2358H228.854L235.328 21.5455H239.238L229.282 48.4205C228.834 49.6319 228.279 50.6346 227.617 51.4286C226.955 52.2328 226.187 52.8284 225.311 53.2152C224.446 53.602 223.469 53.7955 222.38 53.7955ZM243.994 53.7955V21.5455H247.476V25.2713H247.903C248.168 24.8641 248.534 24.3449 249.003 23.7138C249.481 23.0724 250.163 22.5024 251.049 22.0036C251.945 21.4946 253.156 21.2401 254.683 21.2401C256.658 21.2401 258.399 21.7338 259.905 22.7212C261.412 23.7087 262.588 25.1084 263.433 26.9205C264.278 28.7325 264.7 30.8703 264.7 33.3338C264.7 35.8177 264.278 37.9708 263.433 39.793C262.588 41.605 261.417 43.0098 259.921 44.0075C258.424 44.9949 256.699 45.4886 254.744 45.4886C253.237 45.4886 252.031 45.2392 251.125 44.7404C250.219 44.2314 249.522 43.6562 249.033 43.0149C248.545 42.3634 248.168 41.8239 247.903 41.3963H247.598V53.7955H243.994ZM247.537 33.2727C247.537 35.044 247.796 36.6067 248.315 37.9606C248.835 39.3043 249.593 40.358 250.591 41.1214C251.588 41.8748 252.81 42.2514 254.255 42.2514C255.762 42.2514 257.019 41.8544 258.027 41.0604C259.045 40.2562 259.809 39.1771 260.318 37.8232C260.837 36.459 261.096 34.9422 261.096 33.2727C261.096 31.6236 260.842 30.1373 260.333 28.8139C259.834 27.4804 259.076 26.4267 258.058 25.6531C257.05 24.8692 255.782 24.4773 254.255 24.4773C252.79 24.4773 251.558 24.8488 250.56 25.592C249.563 26.3249 248.809 27.3531 248.3 28.6765C247.791 29.9897 247.537 31.5218 247.537 33.2727ZM280.031 45.4886C277.771 45.4886 275.822 44.9898 274.183 43.9922C272.554 42.9844 271.297 41.5795 270.411 39.7777C269.536 37.9657 269.098 35.8584 269.098 33.456C269.098 31.0535 269.536 28.9361 270.411 27.1037C271.297 25.2611 272.528 23.8258 274.106 22.7976C275.694 21.7592 277.547 21.2401 279.665 21.2401C280.886 21.2401 282.092 21.4437 283.284 21.8509C284.475 22.258 285.559 22.9197 286.536 23.8359C287.513 24.742 288.292 25.9432 288.872 27.4396C289.453 28.9361 289.743 30.7786 289.743 32.9673V34.4943H271.663V31.3793H286.078C286.078 30.0559 285.813 28.875 285.284 27.8366C284.765 26.7983 284.022 25.9788 283.054 25.3782C282.098 24.7776 280.968 24.4773 279.665 24.4773C278.229 24.4773 276.987 24.8336 275.939 25.5462C274.9 26.2486 274.101 27.1648 273.541 28.2947C272.981 29.4247 272.701 30.6361 272.701 31.929V34.0057C272.701 35.777 273.007 37.2785 273.618 38.5103C274.239 39.7319 275.099 40.6634 276.198 41.3047C277.298 41.9358 278.575 42.2514 280.031 42.2514C280.978 42.2514 281.833 42.1191 282.596 41.8544C283.37 41.5795 284.037 41.1723 284.597 40.6328C285.157 40.0831 285.589 39.401 285.895 38.5866L289.376 39.5639C289.01 40.7448 288.394 41.7831 287.529 42.679C286.663 43.5646 285.594 44.2569 284.322 44.7557C283.049 45.2443 281.619 45.4886 280.031 45.4886Z" fill="#FCFCFC"/>
</svg>
