<svg width="318" height="201" viewBox="0 0 318 201" fill="none" xmlns="http://www.w3.org/2000/svg">
<rect x="1.5" y="1.5" width="315" height="198" rx="38.5" fill="#262626" stroke="black" stroke-width="3"/>
<path d="M20 1.5H298C308.217 1.5 316.5 9.78273 316.5 20V61.5H1.5V20C1.5 9.78273 9.78273 1.5 20 1.5Z" fill="#3C3C3C" stroke="black" stroke-width="3"/>
<rect x="17.5" y="73.5" width="117" height="31" rx="15.5" fill="#CCCCCC"/>
<path d="M92.0881 95.2045C91.2699 95.2045 90.5476 94.9979 89.9212 94.5845C89.2947 94.1669 88.8047 93.5788 88.451 92.8203C88.0973 92.0575 87.9205 91.1562 87.9205 90.1165C87.9205 89.0852 88.0973 88.1903 88.451 87.4318C88.8047 86.6733 89.2969 86.0874 89.9276 85.674C90.5582 85.2607 91.2869 85.054 92.1136 85.054C92.7528 85.054 93.2578 85.1605 93.6286 85.3736C94.0036 85.5824 94.2891 85.821 94.4851 86.0895C94.6854 86.3537 94.8409 86.571 94.9517 86.7415H95.0795V81.9091H96.5881V95H95.1307V93.4915H94.9517C94.8409 93.6705 94.6832 93.8963 94.4787 94.169C94.2741 94.4375 93.9822 94.6783 93.603 94.8913C93.2237 95.1001 92.7188 95.2045 92.0881 95.2045ZM92.2926 93.8494C92.8977 93.8494 93.4091 93.6918 93.8267 93.3764C94.2443 93.0568 94.5618 92.6158 94.7791 92.0533C94.9964 91.4865 95.1051 90.8324 95.1051 90.0909C95.1051 89.358 94.9986 88.7166 94.7855 88.1669C94.5724 87.6129 94.2571 87.1825 93.8395 86.8757C93.4219 86.5646 92.9063 86.4091 92.2926 86.4091C91.6534 86.4091 91.1207 86.5732 90.6946 86.9013C90.2727 87.2251 89.9553 87.6662 89.7422 88.2244C89.5334 88.7784 89.429 89.4006 89.429 90.0909C89.429 90.7898 89.5355 91.4247 89.7486 91.9957C89.9659 92.5625 90.2855 93.0142 90.7074 93.3509C91.1335 93.6832 91.6619 93.8494 92.2926 93.8494ZM102.45 95.2301C101.827 95.2301 101.263 95.1129 100.756 94.8786C100.249 94.6399 99.8459 94.2969 99.5476 93.8494C99.2493 93.3977 99.1001 92.8523 99.1001 92.2131C99.1001 91.6506 99.2109 91.1946 99.4325 90.8452C99.6541 90.4915 99.9503 90.2145 100.321 90.0142C100.692 89.8139 101.101 89.6648 101.548 89.5668C102 89.4645 102.454 89.3835 102.91 89.3239C103.506 89.2472 103.99 89.1896 104.361 89.1513C104.736 89.1087 105.009 89.0384 105.179 88.9403C105.354 88.8423 105.441 88.6719 105.441 88.429V88.3778C105.441 87.7472 105.268 87.2571 104.923 86.9077C104.582 86.5582 104.065 86.3835 103.37 86.3835C102.65 86.3835 102.085 86.5412 101.676 86.8565C101.267 87.1719 100.979 87.5085 100.813 87.8665L99.3814 87.3551C99.6371 86.7585 99.978 86.294 100.404 85.9616C100.835 85.625 101.303 85.3906 101.81 85.2585C102.322 85.1222 102.825 85.054 103.319 85.054C103.634 85.054 103.996 85.0923 104.406 85.169C104.819 85.2415 105.217 85.3928 105.601 85.6229C105.989 85.853 106.31 86.2003 106.566 86.6648C106.822 87.1293 106.95 87.7514 106.95 88.5312V95H105.441V93.6705H105.364C105.262 93.8835 105.092 94.1115 104.853 94.3544C104.614 94.5973 104.297 94.804 103.901 94.9744C103.504 95.1449 103.021 95.2301 102.45 95.2301ZM102.68 93.875C103.276 93.875 103.779 93.7578 104.188 93.5234C104.602 93.2891 104.913 92.9865 105.121 92.6158C105.335 92.245 105.441 91.8551 105.441 91.446V90.0653C105.377 90.142 105.237 90.2124 105.019 90.2763C104.806 90.3359 104.559 90.3892 104.278 90.4361C104.001 90.4787 103.73 90.517 103.466 90.5511C103.206 90.581 102.995 90.6065 102.833 90.6278C102.441 90.679 102.075 90.7621 101.734 90.8771C101.397 90.9879 101.124 91.1562 100.915 91.3821C100.711 91.6037 100.609 91.9062 100.609 92.2898C100.609 92.8139 100.803 93.2102 101.19 93.4787C101.582 93.7429 102.079 93.875 102.68 93.875ZM110.323 98.6818C110.067 98.6818 109.839 98.6605 109.639 98.6179C109.439 98.5795 109.3 98.5412 109.224 98.5028L109.607 97.1733C109.974 97.267 110.297 97.3011 110.579 97.2756C110.86 97.25 111.109 97.1243 111.327 96.8984C111.548 96.6768 111.751 96.3168 111.934 95.8182L112.215 95.0511L108.584 85.1818H110.221L112.931 93.0057H113.033L115.743 85.1818H117.38L113.212 96.4318C113.025 96.9389 112.792 97.3587 112.515 97.6911C112.238 98.0277 111.917 98.277 111.55 98.4389C111.188 98.6009 110.779 98.6818 110.323 98.6818Z" fill="black"/>
<rect x="17.5" y="73.5" width="117" height="31" rx="15.5" stroke="black" stroke-width="3"/>
<path d="M19 89C19 81.268 25.268 75 33 75H71C73.7614 75 76 77.2386 76 80V98C76 100.761 73.7614 103 71 103H33C25.268 103 19 96.732 19 89V89Z" fill="#6C6C6C"/>
<path d="M38.3838 95V85.1818H39.8924V95H38.3838ZM39.1509 83.5455C38.8568 83.5455 38.6033 83.4453 38.3902 83.245C38.1814 83.0447 38.077 82.804 38.077 82.5227C38.077 82.2415 38.1814 82.0007 38.3902 81.8004C38.6033 81.6001 38.8568 81.5 39.1509 81.5C39.4449 81.5 39.6963 81.6001 39.9051 81.8004C40.1182 82.0007 40.2247 82.2415 40.2247 82.5227C40.2247 82.804 40.1182 83.0447 39.9051 83.245C39.6963 83.4453 39.4449 83.5455 39.1509 83.5455ZM44.1638 89.0938V95H42.6553V85.1818H44.1127V86.7159H44.2405C44.4707 86.2173 44.8201 85.8168 45.2888 85.5142C45.7576 85.2074 46.3627 85.054 47.1042 85.054C47.769 85.054 48.3506 85.1903 48.8492 85.4631C49.3478 85.7315 49.7356 86.1406 50.0126 86.6903C50.2896 87.2358 50.428 87.9261 50.428 88.7614V95H48.9195V88.8636C48.9195 88.0923 48.7192 87.4915 48.3187 87.0611C47.9181 86.6264 47.3684 86.4091 46.6695 86.4091C46.188 86.4091 45.7576 86.5135 45.3783 86.7223C45.0033 86.9311 44.7072 87.2358 44.4898 87.6364C44.2725 88.0369 44.1638 88.5227 44.1638 89.0938ZM57.4545 85.1818V86.4602H52.3664V85.1818H57.4545ZM53.8494 82.8295H55.3579V92.1875C55.3579 92.6136 55.4197 92.9332 55.5433 93.1463C55.6711 93.3551 55.8331 93.4957 56.0291 93.5682C56.2294 93.6364 56.4403 93.6705 56.6619 93.6705C56.8281 93.6705 56.9644 93.6619 57.071 93.6449C57.1775 93.6236 57.2627 93.6065 57.3267 93.5938L57.6335 94.9489C57.5312 94.9872 57.3885 95.0256 57.2052 95.0639C57.022 95.1065 56.7897 95.1278 56.5085 95.1278C56.0823 95.1278 55.6647 95.0362 55.2556 94.853C54.8508 94.6697 54.5142 94.3906 54.2457 94.0156C53.9815 93.6406 53.8494 93.1676 53.8494 92.5966V82.8295Z" fill="white"/>
<rect x="17.5" y="112.5" width="141" height="31" rx="15.5" fill="#CCCCCC"/>
<path d="M88.3807 134V124.182H89.8381V125.716H89.9659C90.1705 125.192 90.5007 124.785 90.9567 124.495C91.4126 124.201 91.9602 124.054 92.5994 124.054C93.2472 124.054 93.7862 124.201 94.2166 124.495C94.6513 124.785 94.9901 125.192 95.233 125.716H95.3352C95.5866 125.209 95.9638 124.806 96.4666 124.508C96.9695 124.205 97.5724 124.054 98.2756 124.054C99.1534 124.054 99.8714 124.329 100.43 124.879C100.988 125.424 101.267 126.274 101.267 127.429V134H99.7585V127.429C99.7585 126.705 99.5604 126.187 99.1641 125.876C98.7678 125.565 98.3011 125.409 97.7642 125.409C97.0739 125.409 96.5391 125.618 96.1598 126.036C95.7805 126.449 95.5909 126.973 95.5909 127.608V134H94.0568V127.276C94.0568 126.717 93.8757 126.268 93.5135 125.927C93.1513 125.582 92.6847 125.409 92.1136 125.409C91.7216 125.409 91.3551 125.513 91.0142 125.722C90.6776 125.931 90.4048 126.221 90.196 126.592C89.9915 126.958 89.8892 127.382 89.8892 127.864V134H88.3807ZM108.014 134.205C107.127 134.205 106.35 133.994 105.681 133.572C105.016 133.15 104.496 132.56 104.121 131.801C103.75 131.043 103.565 130.156 103.565 129.142C103.565 128.119 103.75 127.227 104.121 126.464C104.496 125.701 105.016 125.109 105.681 124.687C106.35 124.265 107.127 124.054 108.014 124.054C108.9 124.054 109.676 124.265 110.341 124.687C111.01 125.109 111.529 125.701 111.9 126.464C112.275 127.227 112.463 128.119 112.463 129.142C112.463 130.156 112.275 131.043 111.9 131.801C111.529 132.56 111.01 133.15 110.341 133.572C109.676 133.994 108.9 134.205 108.014 134.205ZM108.014 132.849C108.687 132.849 109.241 132.677 109.676 132.332C110.11 131.987 110.432 131.533 110.641 130.97C110.85 130.408 110.954 129.798 110.954 129.142C110.954 128.486 110.85 127.874 110.641 127.308C110.432 126.741 110.11 126.283 109.676 125.933C109.241 125.584 108.687 125.409 108.014 125.409C107.341 125.409 106.787 125.584 106.352 125.933C105.917 126.283 105.596 126.741 105.387 127.308C105.178 127.874 105.074 128.486 105.074 129.142C105.074 129.798 105.178 130.408 105.387 130.97C105.596 131.533 105.917 131.987 106.352 132.332C106.787 132.677 107.341 132.849 108.014 132.849ZM116.274 128.094V134H114.765V124.182H116.223V125.716H116.351C116.581 125.217 116.93 124.817 117.399 124.514C117.868 124.207 118.473 124.054 119.214 124.054C119.879 124.054 120.461 124.19 120.959 124.463C121.458 124.732 121.846 125.141 122.123 125.69C122.4 126.236 122.538 126.926 122.538 127.761V134H121.03V127.864C121.03 127.092 120.829 126.491 120.429 126.061C120.028 125.626 119.479 125.409 118.78 125.409C118.298 125.409 117.868 125.513 117.488 125.722C117.113 125.931 116.817 126.236 116.6 126.636C116.383 127.037 116.274 127.523 116.274 128.094ZM129.565 124.182V125.46H124.477V124.182H129.565ZM125.96 121.83H127.468V131.188C127.468 131.614 127.53 131.933 127.653 132.146C127.781 132.355 127.943 132.496 128.139 132.568C128.339 132.636 128.55 132.67 128.772 132.67C128.938 132.67 129.075 132.662 129.181 132.645C129.288 132.624 129.373 132.607 129.437 132.594L129.744 133.949C129.641 133.987 129.499 134.026 129.315 134.064C129.132 134.107 128.9 134.128 128.619 134.128C128.192 134.128 127.775 134.036 127.366 133.853C126.961 133.67 126.624 133.391 126.356 133.016C126.092 132.641 125.96 132.168 125.96 131.597V121.83ZM133.553 128.094V134H132.045V120.909H133.553V125.716H133.681C133.911 125.209 134.256 124.806 134.717 124.508C135.181 124.205 135.799 124.054 136.57 124.054C137.239 124.054 137.825 124.188 138.328 124.457C138.831 124.721 139.221 125.128 139.498 125.678C139.779 126.223 139.92 126.918 139.92 127.761V134H138.411V127.864C138.411 127.084 138.209 126.481 137.804 126.055C137.403 125.624 136.847 125.409 136.136 125.409C135.641 125.409 135.198 125.513 134.806 125.722C134.418 125.931 134.112 126.236 133.886 126.636C133.664 127.037 133.553 127.523 133.553 128.094Z" fill="black"/>
<rect x="17.5" y="112.5" width="141" height="31" rx="15.5" stroke="black" stroke-width="3"/>
<path d="M19 128C19 120.268 25.268 114 33 114H71C73.7614 114 76 116.239 76 119V137C76 139.761 73.7614 142 71 142H33C25.268 142 19 135.732 19 128V128Z" fill="#6C6C6C"/>
<path d="M38.3838 134V124.182H39.8924V134H38.3838ZM39.1509 122.545C38.8568 122.545 38.6033 122.445 38.3902 122.245C38.1814 122.045 38.077 121.804 38.077 121.523C38.077 121.241 38.1814 121.001 38.3902 120.8C38.6033 120.6 38.8568 120.5 39.1509 120.5C39.4449 120.5 39.6963 120.6 39.9051 120.8C40.1182 121.001 40.2247 121.241 40.2247 121.523C40.2247 121.804 40.1182 122.045 39.9051 122.245C39.6963 122.445 39.4449 122.545 39.1509 122.545ZM44.1638 128.094V134H42.6553V124.182H44.1127V125.716H44.2405C44.4707 125.217 44.8201 124.817 45.2888 124.514C45.7576 124.207 46.3627 124.054 47.1042 124.054C47.769 124.054 48.3506 124.19 48.8492 124.463C49.3478 124.732 49.7356 125.141 50.0126 125.69C50.2896 126.236 50.428 126.926 50.428 127.761V134H48.9195V127.864C48.9195 127.092 48.7192 126.491 48.3187 126.061C47.9181 125.626 47.3684 125.409 46.6695 125.409C46.188 125.409 45.7576 125.513 45.3783 125.722C45.0033 125.931 44.7072 126.236 44.4898 126.636C44.2725 127.037 44.1638 127.523 44.1638 128.094ZM57.4545 124.182V125.46H52.3664V124.182H57.4545ZM53.8494 121.83H55.3579V131.188C55.3579 131.614 55.4197 131.933 55.5433 132.146C55.6711 132.355 55.8331 132.496 56.0291 132.568C56.2294 132.636 56.4403 132.67 56.6619 132.67C56.8281 132.67 56.9644 132.662 57.071 132.645C57.1775 132.624 57.2627 132.607 57.3267 132.594L57.6335 133.949C57.5312 133.987 57.3885 134.026 57.2052 134.064C57.022 134.107 56.7897 134.128 56.5085 134.128C56.0823 134.128 55.6647 134.036 55.2556 133.853C54.8508 133.67 54.5142 133.391 54.2457 133.016C53.9815 132.641 53.8494 132.168 53.8494 131.597V121.83Z" fill="white"/>
<rect x="17.5" y="151.5" width="123" height="31" rx="15.5" fill="#CCCCCC"/>
<path d="M89.3523 176.682C89.0966 176.682 88.8686 176.661 88.6683 176.618C88.468 176.58 88.3295 176.541 88.2528 176.503L88.6364 175.173C89.0028 175.267 89.3267 175.301 89.608 175.276C89.8892 175.25 90.1385 175.124 90.3558 174.898C90.5774 174.677 90.7798 174.317 90.9631 173.818L91.2443 173.051L87.6136 163.182H89.25L91.9602 171.006H92.0625L94.7727 163.182H96.4091L92.2415 174.432C92.054 174.939 91.8217 175.359 91.5447 175.691C91.2678 176.028 90.946 176.277 90.5795 176.439C90.2173 176.601 89.8082 176.682 89.3523 176.682ZM102.165 173.205C101.219 173.205 100.403 172.996 99.717 172.578C99.0352 172.156 98.5089 171.568 98.1381 170.814C97.7717 170.055 97.5884 169.173 97.5884 168.168C97.5884 167.162 97.7717 166.276 98.1381 165.509C98.5089 164.737 99.0245 164.136 99.685 163.706C100.35 163.271 101.125 163.054 102.012 163.054C102.523 163.054 103.028 163.139 103.527 163.31C104.025 163.48 104.479 163.757 104.888 164.141C105.297 164.52 105.623 165.023 105.866 165.649C106.109 166.276 106.23 167.047 106.23 167.963V168.602H98.6623V167.298H104.696C104.696 166.744 104.586 166.25 104.364 165.815C104.147 165.381 103.836 165.038 103.431 164.786C103.03 164.535 102.557 164.409 102.012 164.409C101.411 164.409 100.891 164.558 100.452 164.857C100.017 165.151 99.6829 165.534 99.4485 166.007C99.2141 166.48 99.0969 166.987 99.0969 167.528V168.398C99.0969 169.139 99.2248 169.768 99.4805 170.283C99.7404 170.795 100.1 171.185 100.561 171.453C101.021 171.717 101.556 171.849 102.165 171.849C102.561 171.849 102.919 171.794 103.239 171.683C103.563 171.568 103.842 171.398 104.076 171.172C104.311 170.942 104.492 170.656 104.62 170.315L106.077 170.724C105.924 171.219 105.666 171.653 105.304 172.028C104.941 172.399 104.494 172.689 103.961 172.898C103.429 173.102 102.83 173.205 102.165 173.205ZM111.414 173.23C110.792 173.23 110.228 173.113 109.721 172.879C109.213 172.64 108.811 172.297 108.512 171.849C108.214 171.398 108.065 170.852 108.065 170.213C108.065 169.651 108.176 169.195 108.397 168.845C108.619 168.491 108.915 168.214 109.286 168.014C109.657 167.814 110.066 167.665 110.513 167.567C110.965 167.464 111.419 167.384 111.875 167.324C112.471 167.247 112.955 167.19 113.326 167.151C113.701 167.109 113.973 167.038 114.144 166.94C114.319 166.842 114.406 166.672 114.406 166.429V166.378C114.406 165.747 114.233 165.257 113.888 164.908C113.547 164.558 113.029 164.384 112.335 164.384C111.615 164.384 111.05 164.541 110.641 164.857C110.232 165.172 109.944 165.509 109.778 165.866L108.346 165.355C108.602 164.759 108.943 164.294 109.369 163.962C109.799 163.625 110.268 163.391 110.775 163.259C111.287 163.122 111.789 163.054 112.284 163.054C112.599 163.054 112.961 163.092 113.37 163.169C113.784 163.241 114.182 163.393 114.566 163.623C114.953 163.853 115.275 164.2 115.531 164.665C115.787 165.129 115.914 165.751 115.914 166.531V173H114.406V171.67H114.329C114.227 171.884 114.056 172.112 113.818 172.354C113.579 172.597 113.262 172.804 112.865 172.974C112.469 173.145 111.985 173.23 111.414 173.23ZM111.645 171.875C112.241 171.875 112.744 171.758 113.153 171.523C113.566 171.289 113.877 170.987 114.086 170.616C114.299 170.245 114.406 169.855 114.406 169.446V168.065C114.342 168.142 114.201 168.212 113.984 168.276C113.771 168.336 113.524 168.389 113.243 168.436C112.966 168.479 112.695 168.517 112.431 168.551C112.171 168.581 111.96 168.607 111.798 168.628C111.406 168.679 111.039 168.762 110.699 168.877C110.362 168.988 110.089 169.156 109.88 169.382C109.676 169.604 109.574 169.906 109.574 170.29C109.574 170.814 109.767 171.21 110.155 171.479C110.547 171.743 111.044 171.875 111.645 171.875ZM118.668 173V163.182H120.125V164.665H120.227C120.406 164.179 120.73 163.785 121.199 163.482C121.668 163.18 122.196 163.028 122.784 163.028C122.895 163.028 123.034 163.031 123.2 163.035C123.366 163.039 123.492 163.045 123.577 163.054V164.588C123.526 164.575 123.409 164.556 123.225 164.531C123.046 164.501 122.857 164.486 122.656 164.486C122.179 164.486 121.753 164.586 121.378 164.786C121.007 164.982 120.713 165.255 120.496 165.604C120.283 165.95 120.176 166.344 120.176 166.787V173H118.668Z" fill="black"/>
<rect x="17.5" y="151.5" width="123" height="31" rx="15.5" stroke="black" stroke-width="3"/>
<path d="M19 167C19 159.268 25.268 153 33 153H71C73.7614 153 76 155.239 76 158V176C76 178.761 73.7614 181 71 181H33C25.268 181 19 174.732 19 167V167Z" fill="#6C6C6C"/>
<path d="M38.3838 173V163.182H39.8924V173H38.3838ZM39.1509 161.545C38.8568 161.545 38.6033 161.445 38.3902 161.245C38.1814 161.045 38.077 160.804 38.077 160.523C38.077 160.241 38.1814 160.001 38.3902 159.8C38.6033 159.6 38.8568 159.5 39.1509 159.5C39.4449 159.5 39.6963 159.6 39.9051 159.8C40.1182 160.001 40.2247 160.241 40.2247 160.523C40.2247 160.804 40.1182 161.045 39.9051 161.245C39.6963 161.445 39.4449 161.545 39.1509 161.545ZM44.1638 167.094V173H42.6553V163.182H44.1127V164.716H44.2405C44.4707 164.217 44.8201 163.817 45.2888 163.514C45.7576 163.207 46.3627 163.054 47.1042 163.054C47.769 163.054 48.3506 163.19 48.8492 163.463C49.3478 163.732 49.7356 164.141 50.0126 164.69C50.2896 165.236 50.428 165.926 50.428 166.761V173H48.9195V166.864C48.9195 166.092 48.7192 165.491 48.3187 165.061C47.9181 164.626 47.3684 164.409 46.6695 164.409C46.188 164.409 45.7576 164.513 45.3783 164.722C45.0033 164.931 44.7072 165.236 44.4898 165.636C44.2725 166.037 44.1638 166.523 44.1638 167.094ZM57.4545 163.182V164.46H52.3664V163.182H57.4545ZM53.8494 160.83H55.3579V170.188C55.3579 170.614 55.4197 170.933 55.5433 171.146C55.6711 171.355 55.8331 171.496 56.0291 171.568C56.2294 171.636 56.4403 171.67 56.6619 171.67C56.8281 171.67 56.9644 171.662 57.071 171.645C57.1775 171.624 57.2627 171.607 57.3267 171.594L57.6335 172.949C57.5312 172.987 57.3885 173.026 57.2052 173.064C57.022 173.107 56.7897 173.128 56.5085 173.128C56.0823 173.128 55.6647 173.036 55.2556 172.853C54.8508 172.67 54.5142 172.391 54.2457 172.016C53.9815 171.641 53.8494 171.168 53.8494 170.597V160.83Z" fill="white"/>
<path d="M75.7295 48H66.0789V16.7273H76.157C79.1907 16.7273 81.7865 17.3533 83.9447 18.6055C86.1028 19.8474 87.7571 21.634 88.9074 23.9652C90.0577 26.2862 90.6329 29.0653 90.6329 32.3026C90.6329 35.5601 90.0526 38.3647 88.8921 40.7163C87.7316 43.0576 86.0418 44.8595 83.8225 46.1218C81.6033 47.3739 78.9056 48 75.7295 48ZM69.8659 44.6406H75.4852C78.0709 44.6406 80.2137 44.1418 81.9138 43.1442C83.6138 42.1465 84.8812 40.7264 85.716 38.8839C86.5508 37.0413 86.9681 34.8475 86.9681 32.3026C86.9681 29.7779 86.5558 27.6045 85.7313 25.7823C84.9067 23.9499 83.6749 22.5451 82.036 21.5678C80.397 20.5804 78.3559 20.0866 75.9127 20.0866H69.8659V44.6406ZM103.399 48.5497C101.912 48.5497 100.563 48.2698 99.352 47.7099C98.1406 47.1398 97.1786 46.3203 96.466 45.2514C95.7534 44.1723 95.3971 42.8693 95.3971 41.3423C95.3971 39.9986 95.6618 38.9093 96.1911 38.0746C96.7205 37.2296 97.428 36.5679 98.3137 36.0895C99.1993 35.611 100.177 35.2547 101.245 35.0206C102.325 34.7763 103.409 34.5829 104.498 34.4403C105.923 34.2571 107.079 34.1197 107.964 34.0281C108.86 33.9263 109.512 33.7583 109.919 33.5241C110.336 33.29 110.545 32.8828 110.545 32.3026V32.1804C110.545 30.6738 110.133 29.5031 109.308 28.6683C108.494 27.8336 107.257 27.4162 105.597 27.4162C103.877 27.4162 102.528 27.7929 101.551 28.5462C100.574 29.2995 99.8865 30.1037 99.4894 30.9588L96.069 29.7372C96.6798 28.312 97.4942 27.2024 98.5122 26.4084C99.5403 25.6042 100.66 25.0443 101.872 24.7287C103.093 24.4029 104.294 24.2401 105.475 24.2401C106.229 24.2401 107.094 24.3317 108.071 24.5149C109.059 24.688 110.01 25.0494 110.927 25.5991C111.853 26.1488 112.622 26.9785 113.232 28.0881C113.843 29.1977 114.149 30.6839 114.149 32.5469V48H110.545V44.8239H110.362C110.117 45.3329 109.71 45.8775 109.14 46.4577C108.57 47.038 107.812 47.5317 106.865 47.9389C105.918 48.3461 104.763 48.5497 103.399 48.5497ZM103.948 45.3125C105.373 45.3125 106.575 45.0326 107.552 44.4727C108.539 43.9128 109.283 43.19 109.781 42.3043C110.29 41.4187 110.545 40.4872 110.545 39.5099V36.2116C110.392 36.3949 110.056 36.5629 109.537 36.7156C109.028 36.8581 108.438 36.9853 107.766 37.0973C107.104 37.1991 106.458 37.2907 105.826 37.3722C105.205 37.4434 104.702 37.5045 104.315 37.5554C103.378 37.6776 102.503 37.8761 101.688 38.1509C100.884 38.4156 100.233 38.8177 99.7338 39.3572C99.2451 39.8866 99.0008 40.6094 99.0008 41.5256C99.0008 42.7777 99.464 43.7244 100.39 44.3658C101.327 44.9969 102.513 45.3125 103.948 45.3125ZM130.926 24.5455V27.5994H118.771V24.5455H130.926ZM122.314 18.9261H125.918V41.2812C125.918 42.2992 126.065 43.0627 126.361 43.5717C126.666 44.0705 127.053 44.4065 127.521 44.5795C128 44.7424 128.503 44.8239 129.033 44.8239C129.43 44.8239 129.756 44.8035 130.01 44.7628C130.265 44.7119 130.468 44.6712 130.621 44.6406L131.354 47.8778C131.11 47.9695 130.769 48.0611 130.331 48.1527C129.893 48.2545 129.338 48.3054 128.666 48.3054C127.648 48.3054 126.651 48.0865 125.673 47.6488C124.706 47.2111 123.902 46.5443 123.261 45.6484C122.63 44.7526 122.314 43.6226 122.314 42.2585V18.9261ZM145.929 48.4886C143.669 48.4886 141.72 47.9898 140.081 46.9922C138.452 45.9844 137.195 44.5795 136.309 42.7777C135.433 40.9657 134.996 38.8584 134.996 36.456C134.996 34.0535 135.433 31.9361 136.309 30.1037C137.195 28.2611 138.426 26.8258 140.004 25.7976C141.592 24.7592 143.445 24.2401 145.562 24.2401C146.784 24.2401 147.99 24.4437 149.181 24.8509C150.373 25.258 151.457 25.9197 152.434 26.8359C153.411 27.742 154.19 28.9432 154.77 30.4396C155.35 31.9361 155.641 33.7786 155.641 35.9673V37.4943H137.561V34.3793H151.976C151.976 33.0559 151.711 31.875 151.182 30.8366C150.663 29.7983 149.92 28.9788 148.952 28.3782C147.996 27.7776 146.866 27.4773 145.562 27.4773C144.127 27.4773 142.885 27.8336 141.837 28.5462C140.798 29.2486 139.999 30.1648 139.439 31.2947C138.879 32.4247 138.599 33.6361 138.599 34.929V37.0057C138.599 38.777 138.905 40.2785 139.516 41.5103C140.137 42.7319 140.997 43.6634 142.096 44.3047C143.196 44.9358 144.473 45.2514 145.929 45.2514C146.876 45.2514 147.731 45.1191 148.494 44.8544C149.268 44.5795 149.935 44.1723 150.495 43.6328C151.055 43.0831 151.487 42.401 151.793 41.5866L155.274 42.5639C154.908 43.7448 154.292 44.7831 153.426 45.679C152.561 46.5646 151.492 47.2569 150.22 47.7557C148.947 48.2443 147.517 48.4886 145.929 48.4886ZM157.717 20.0866V16.7273H181.172V20.0866H171.338V48H167.551V20.0866H157.717ZM186.161 56.7955C185.551 56.7955 185.006 56.7446 184.527 56.6428C184.049 56.5511 183.718 56.4595 183.535 56.3679L184.451 53.1918C185.327 53.4157 186.1 53.4972 186.772 53.4361C187.444 53.375 188.04 53.0747 188.559 52.5352C189.088 52.0058 189.572 51.1456 190.009 49.9545L190.681 48.1222L182.008 24.5455H185.917L192.391 43.2358H192.636L199.11 24.5455H203.019L193.063 51.4205C192.615 52.6319 192.061 53.6346 191.399 54.4286C190.737 55.2328 189.969 55.8284 189.093 56.2152C188.228 56.602 187.251 56.7955 186.161 56.7955ZM207.776 56.7955V24.5455H211.257V28.2713H211.685C211.95 27.8641 212.316 27.3449 212.784 26.7138C213.263 26.0724 213.945 25.5024 214.831 25.0036C215.726 24.4946 216.938 24.2401 218.465 24.2401C220.44 24.2401 222.18 24.7338 223.687 25.7212C225.194 26.7087 226.369 28.1084 227.214 29.9205C228.059 31.7325 228.482 33.8703 228.482 36.3338C228.482 38.8177 228.059 40.9708 227.214 42.793C226.369 44.605 225.199 46.0098 223.702 47.0075C222.206 47.9949 220.48 48.4886 218.526 48.4886C217.019 48.4886 215.813 48.2392 214.907 47.7404C214.001 47.2314 213.304 46.6562 212.815 46.0149C212.326 45.3634 211.95 44.8239 211.685 44.3963H211.38V56.7955H207.776ZM211.318 36.2727C211.318 38.044 211.578 39.6067 212.097 40.9606C212.616 42.3043 213.375 43.358 214.372 44.1214C215.37 44.8748 216.592 45.2514 218.037 45.2514C219.544 45.2514 220.801 44.8544 221.809 44.0604C222.827 43.2562 223.59 42.1771 224.099 40.8232C224.619 39.459 224.878 37.9422 224.878 36.2727C224.878 34.6236 224.624 33.1373 224.115 31.8139C223.616 30.4804 222.857 29.4267 221.839 28.6531C220.832 27.8692 219.564 27.4773 218.037 27.4773C216.571 27.4773 215.34 27.8488 214.342 28.592C213.344 29.3249 212.591 30.3531 212.082 31.6765C211.573 32.9897 211.318 34.5218 211.318 36.2727ZM243.813 48.4886C241.553 48.4886 239.603 47.9898 237.964 46.9922C236.336 45.9844 235.078 44.5795 234.193 42.7777C233.317 40.9657 232.88 38.8584 232.88 36.456C232.88 34.0535 233.317 31.9361 234.193 30.1037C235.078 28.2611 236.31 26.8258 237.888 25.7976C239.476 24.7592 241.329 24.2401 243.446 24.2401C244.668 24.2401 245.874 24.4437 247.065 24.8509C248.256 25.258 249.34 25.9197 250.318 26.8359C251.295 27.742 252.074 28.9432 252.654 30.4396C253.234 31.9361 253.524 33.7786 253.524 35.9673V37.4943H235.445V34.3793H249.86C249.86 33.0559 249.595 31.875 249.066 30.8366C248.546 29.7983 247.803 28.9788 246.836 28.3782C245.879 27.7776 244.749 27.4773 243.446 27.4773C242.011 27.4773 240.769 27.8336 239.72 28.5462C238.682 29.2486 237.883 30.1648 237.323 31.2947C236.763 32.4247 236.483 33.6361 236.483 34.929V37.0057C236.483 38.777 236.789 40.2785 237.399 41.5103C238.02 42.7319 238.881 43.6634 239.98 44.3047C241.079 44.9358 242.357 45.2514 243.813 45.2514C244.76 45.2514 245.615 45.1191 246.378 44.8544C247.152 44.5795 247.819 44.1723 248.378 43.6328C248.938 43.0831 249.371 42.401 249.676 41.5866L253.158 42.5639C252.791 43.7448 252.176 44.7831 251.31 45.679C250.445 46.5646 249.376 47.2569 248.104 47.7557C246.831 48.2443 245.401 48.4886 243.813 48.4886Z" fill="#FCFCFC"/>
</svg>
